<?xml version="1.0" encoding="utf-8"?>
<svg version="1.1" xmlns="http://www.w3.org/2000/svg" width="20" height="200">
<defs>
  <filter id="s">
    <feFlood flood-color="#000" flood-opacity=".25"/>
    <feComposite in2="SourceAlpha" operator="out"/>
    <feOffset dx="0" dy="1"/>
    <feComposite in2="SourceAlpha" operator="in"/>
    <feBlend in2="SourceGraphic" mode="overlay"/>
</filter> 
  </defs>

	<g filter="url(#s)">
<path d="M16,5h-1l-2-2H7L5,5H4C2.8954468,5,2,5.8953857,2,7v7c0,1.1045532,0.8954468,2,2,2h12c1.1045532,0,2-0.8954468,2-2V7
	C18,5.8953857,17.1045532,5,16,5z M12,11c0,0.5522461-0.4476929,1-1,1H9c-0.5523071,0-1-0.4477539-1-1V9
	c0-0.5523071,0.4476929-1,1-1h2c0.5523071,0,1,0.4476929,1,1V11z"/>
<path d="M15,22H5c-1.1045532,0-2,0.8953857-2,2v12c0,1.1045532,0.8954468,2,2,2h10c1.1045532,0,2-0.8954468,2-2V24
	C17,22.8953857,16.1045532,22,15,22z M6,37H4v-2h2V37z M6,33H4v-2h2V33z M6,29H4v-2h2V29z M6,25H4v-2h2V25z M16,37h-2v-2h2V37z
	 M16,33h-2v-2h2V33z M16,29h-2v-2h2V29z M16,25h-2v-2h2V25z"/>
<path d="M16,42H4c-1.1045532,0-2,0.8953857-2,2v12c0,1.1045532,0.8954468,2,2,2h12c1.1045532,0,2-0.8954468,2-2V44
	C18,42.8953857,17.1045532,42,16,42z M9,54H8.9953613C8.4456177,54,8,53.5543213,8,53.0046387v-6.0036621
	c0-0.5525513,0.4478149-1.0003052,1.0001831-1.0007935L9,46h0.0009766l-0.0007935,0.0001831L13,50L9,54z"/>
<g>
	<path d="M12,67v-5H5c-1.1045532,0-2,0.8953857-2,2v12c0,1.1045532,0.8954468,2,2,2h10c1.1045532,0,2-0.8954468,2-2v-9H12z"/>
	<polygon points="13,62 13,66 17,66 17,65 14,62 	"/>
</g>
<path d="M18,89l-7-7H9l-7,7v2h1v6c0,0.5522461,0.4476929,1,1,1h12c0.5523071,0,1-0.4477539,1-1v-6h1V89z M10,95H7v-4h3V95z"/>
<g>
	<path d="M6,117H4c-0.5522847,0-1-0.4477158-1-1v-9c0-0.5522842,0.4477153-1,1-1h2c0.5522847,0,1,0.4477158,1,1v9
		C7,116.5522842,6.5522847,117,6,117z"/>
	<path d="M11,117H9c-0.5522852,0-1-0.4477158-1-1v-13c0-0.5522842,0.4477148-1,1-1h2c0.5522852,0,1,0.4477158,1,1v13
		C12,116.5522842,11.5522852,117,11,117z"/>
	<path d="M16,117h-2c-0.5522852,0-1-0.4477158-1-1v-8c0-0.5522842,0.4477148-1,1-1h2c0.5522842,0,1,0.4477158,1,1v8
		C17,116.5522842,16.5522842,117,16,117z"/>
</g>
<g>
	<path d="M16,139H7v-15h9c0.5522842,0,1,0.4477158,1,1v13C17,138.5522919,16.5522842,139,16,139z"/>
	<polygon points="3,124 6,124 6,139 3,139 3,138 4,138 4,137 3,137 3,136 4,136 4,135 3,135 3,134 4,134 4,133 3,133 3,132 4,132 
		4,131 3,131 3,130 4,130 4,129 3,129 3,128 4,128 4,127 3,127 3,126 4,126 4,125 3,125 	"/>
</g>
<path d="M16,143H4c-1.1045532,0-2,0.8953857-2,2v12c0,1.1045532,0.8954468,2,2,2h12c1.1045532,0,2-0.8954468,2-2v-12
	C18,143.8953857,17.1045532,143,16,143z M4,157l2-4l2,2L4,157z M9,154l-2-2l7-7l2,2L9,154z"/>
<path d="M10,163c-4.4182739,0-8,3.5817261-8,8s3.5817261,8,8,8s8-3.5817261,8-8S14.4182739,163,10,163z M14,172H9v-6h1v5h4V172z"/>
<g>
	<g>
		
			<rect x="1.5147187" y="189.0001068" transform="matrix(0.7071068 -0.7071068 0.7071068 0.7071068 -131.4213562 62.7207794)" width="16.970562" height="1.9997864"/>
	</g>
	<g>
		<path d="M15.7722778,187.0558472l-2.7880249,2.7880249C12.9869995,189.8966675,13,189.9465332,13,190c0,1.6568604-1.3431396,3-3,3
			c-0.0534668,0-0.1033325-0.0130005-0.1561279-0.0157471l-1.7891846,1.7891846C8.6824341,194.9075317,9.3275757,195,10,195
			c3.6363525,0,6.7418213-2.0733643,8-5C17.5117798,188.8643799,16.7398071,187.8632202,15.7722778,187.0558472z"/>
		<path d="M4.2277222,192.9441528l2.7880249-2.7880249C7.0130005,190.1033325,7,190.0534668,7,190c0-1.6568604,1.3431396-3,3-3
			c0.0534668,0,0.1033325,0.0130005,0.1561279,0.0157471l1.7891846-1.7891846C11.3175659,185.0924683,10.6724243,185,10,185
			c-3.6363525,0-6.7418213,2.0733032-8,5C2.4882202,191.1356201,3.2601929,192.1367798,4.2277222,192.9441528z"/>
	</g>
</g>
</g>
</svg>
