<?xml version="1.0" encoding="utf-8"?>
<!-- Generator: Adobe Illustrator 21.0.0, SVG Export Plug-In . SVG Version: 6.00 Build 0)  -->
<svg version="1.0" id="Layer_1" xmlns="http://www.w3.org/2000/svg" xmlns:xlink="http://www.w3.org/1999/xlink" x="0px" y="0px"
	 width="82px" height="64px" viewBox="0 0 82 64" enable-background="new 0 0 82 64" xml:space="preserve">
<path d="M52.54,21.86c0.4811,0.2531,1.0763,0.0754,1.34-0.4c0.2655-0.3408,0.6916-0.5158,1.12-0.46
	c0.4235-0.0406,0.8394,0.1317,1.11,0.46c0.1722,0.3324,0.5156,0.5408,0.89,0.54c0.1599,0.0006,0.3177-0.0371,0.46-0.11
	c0.4911-0.2527,0.6844-0.8556,0.4317-1.3467c-0.0006-0.0011-0.0011-0.0022-0.0017-0.0033C57.2806,19.5369,56.1724,18.9464,55,19
	c-1.1826-0.0646-2.3021,0.5376-2.9,1.56C51.8792,21.0415,52.0722,21.6116,52.54,21.86z"/>
<path d="M24.54,21.86c0.4811,0.2531,1.0763,0.0754,1.34-0.4c0.2655-0.3408,0.6915-0.5158,1.12-0.46
	c0.4235-0.0406,0.8394,0.1317,1.11,0.46c0.1722,0.3324,0.5156,0.5408,0.89,0.54c0.1599,0.0006,0.3177-0.0371,0.46-0.11
	c0.4911-0.2527,0.6844-0.8556,0.4317-1.3467c-0.0006-0.0011-0.0011-0.0022-0.0017-0.0033C29.2806,19.5369,28.1724,18.9464,27,19
	c-1.1826-0.0646-2.3021,0.5376-2.9,1.56C23.8792,21.0415,24.0722,21.6116,24.54,21.86z"/>
<path d="M34.54,21.86c0.4811,0.2531,1.0763,0.0754,1.34-0.4c0.2655-0.3408,0.6916-0.5158,1.12-0.46
	c0.4235-0.0406,0.8394,0.1317,1.11,0.46c0.1722,0.3324,0.5156,0.5408,0.89,0.54c0.1599,0.0006,0.3177-0.0371,0.46-0.11
	c0.4911-0.2527,0.6844-0.8556,0.4317-1.3467c-0.0006-0.0011-0.0011-0.0022-0.0017-0.0033C39.2806,19.5369,38.1724,18.9464,37,19
	c-1.1826-0.0646-2.3021,0.5376-2.9,1.56C33.8792,21.0415,34.0722,21.6116,34.54,21.86z"/>
<path d="M80.24,47.76c-5.9454-4.8484-12.9695-8.1958-20.48-9.76c2.7015-2.6269,4.23-6.2319,4.24-10c1.6569,0,3-1.3431,3-3v-2
	c-0.0046-0.8481-0.3679-1.6546-1-2.22V12c0-6.6274-5.3726-12-12-12h-8c-1.7868,0-3.4763,0.4012-5,1.1015
	C39.4763,0.4012,37.7868,0,36,0h-8c-6.6274,0-12,5.3726-12,12v8.78c-0.6321,0.5654-0.9954,1.3719-1,2.22v2c0,1.6569,1.3431,3,3,3
	c0.01,3.7681,1.5385,7.3731,4.24,10c-7.5156,1.5557-14.5467,4.8962-20.5,9.74C0.6169,48.8723-0.0092,50.4052,0,52v8
	c0,2.2092,1.7908,4,4,4h56h18c2.2092,0,4-1.7908,4-4v-8C81.9986,50.4092,81.3655,48.8842,80.24,47.76z M62.6,40.76
	c-1.5338,1.5345-3.2845,2.7111-5.1457,3.5704c-1.5248-0.9581-3.1011-1.828-4.7214-2.6071c0.0001,0.0001,0.0002,0.0001,0.0004,0.0002
	c1.7674-0.3522,3.4602-1.0381,4.9768-2.0436C59.3585,39.9505,60.9909,40.3111,62.6,40.76z M65,23v2c0,0.5523-0.4477,1-1,1h-1
	c-0.5523,0-1,0.4477-1,1v1c0,6.6274-5.3726,12-12,12c-0.5961,0-1.1772-0.0579-1.7499-0.1418
	c0.0005,0.0002,0.001,0.0004,0.0016,0.0006c-1.3793-0.4982-2.7822-0.9343-4.204-1.3102c0.1491,0.0389,0.3255,0.0876,0.4742,0.1278
	c-0.7416-0.3838-1.4654-0.8567-2.1067-1.3806C42.2014,37.5342,41.991,37.7753,41.76,38c2.7015-2.6269,4.23-6.2319,4.24-10
	c1.6569,0,3-1.3431,3-3v-2c-0.0046-0.8481-0.3679-1.6546-1-2.22v-7.315c1.0867,0.9744,2.5054,1.5339,4,1.535h6
	c2.2092,0,4,1.7908,4,4v2c0,0.5523,0.4477,1,1,1h1C64.5523,22,65,22.4477,65,23z M46,2h8c5.5228,0,10,4.4772,10,10v7
	c0-3.3137-2.6863-6-6-6h-6c-2.2092,0-4-1.7908-4-4c0-0.4365-0.2834-0.7976-0.6733-0.9341
	c-0.7913-2.2777-2.2466-4.2382-4.1381-5.6581C44.0812,2.1466,45.0229,2,46,2z M18,12c0-5.5228,4.4772-10,10-10h8
	c5.5228,0,10,4.4772,10,10v7c0-3.3137-2.6863-6-6-6h-6c-2.2092,0-4-1.7908-4-4c0-0.5523-0.4477-1-1-1s-1,0.4477-1,1
	c0,2.2092-1.7908,4-4,4c-3.3137,0-6,2.6863-6,6V12z M20,28v-1c0-0.5523-0.4477-1-1-1h-1c-0.5523,0-1-0.4477-1-1v-2
	c0-0.5523,0.4477-1,1-1h1c0.5523,0,1-0.4477,1-1v-2c0-2.2092,1.7908-4,4-4c2.0123-0.0015,3.8899-1.0116,5-2.69
	c1.1101,1.6784,2.9877,2.6885,5,2.69h6c2.2092,0,4,1.7908,4,4v2c0,0.5523,0.4477,1,1,1h1c0.5523,0,1,0.4477,1,1v2
	c0,0.5523-0.4477,1-1,1h-1c-0.5523,0-1,0.4477-1,1v1c0,6.6274-5.3726,12-12,12S20,34.6274,20,28z M24.28,39.66
	c2.2862,1.5244,4.9722,2.3385,7.72,2.34c2.7423,0.0024,5.4244-0.8046,7.71-2.32c1.6484,0.2705,3.2809,0.6311,4.89,1.08
	c-6.9691,6.9726-18.2711,6.9754-25.2437,0.0063c-0.0021-0.0021-0.0042-0.0042-0.0063-0.0063
	C20.9719,40.3029,22.6177,39.9357,24.28,39.66z M4,62c-1.1046,0-2-0.8954-2-2v-8c-0.0009-1.0612,0.42-2.0792,1.17-2.83
	c4.1802-3.3684,8.9186-5.9779,14-7.71c7.3768,8.1545,19.9673,8.785,28.1218,1.4082c0.4926-0.4456,0.9626-0.9156,1.4083-1.4082
	c5.1144,1.7285,9.8841,4.3453,14.09,7.73c0.7598,0.7393,1.195,1.75,1.21,2.81v8c0,1.1046-0.8954,2-2,2H4z M80,60
	c0,1.1046-0.8954,2-2,2H63.4453c-0.0001,0.0001-0.0001,0.0001-0.0001,0.0002C63.7888,61.4097,64,60.7324,64,60v-8
	c-0.0014-1.5908-0.6345-3.1158-1.76-4.24c-0.928-0.7568-1.8908-1.4634-2.8691-2.1459c1.3815-0.7455,2.7047-1.6456,3.9208-2.7458
	c0.4926-0.4456,0.9626-0.9156,1.4083-1.4082c5.1144,1.7285,9.8841,4.3453,14.09,7.73c0.7598,0.7393,1.195,1.75,1.21,2.81V60z"/>
</svg>
