<?xml version="1.0" encoding="utf-8"?>
<!-- Generator: Adobe Illustrator 21.0.0, SVG Export Plug-In . SVG Version: 6.00 Build 0)  -->
<svg version="1.0" id="Layer_1" xmlns="http://www.w3.org/2000/svg" xmlns:xlink="http://www.w3.org/1999/xlink" x="0px" y="0px"
	 width="25px" height="16px" viewBox="0 0 25 16" enable-background="new 0 0 25 16" xml:space="preserve">
<path d="M8,10c2.2091,0,4-1.7909,4-4V4c0-2.2091-1.7909-4-4-4S4,1.7909,4,4v2C4,8.2091,5.7909,10,8,10z M6,4c0-1.1046,0.8954-2,2-2
	s2,0.8954,2,2v2c0,1.1046-0.8954,2-2,2S6,7.1046,6,6V4z"/>
<path d="M17,10c2.2091,0,4-1.7909,4-4V4c0-2.2091-1.7909-4-4-4s-4,1.7909-4,4v2C13,8.2091,14.7909,10,17,10z M15,4
	c0-1.1046,0.8954-2,2-2s2,0.8954,2,2v2c0,1.1046-0.8954,2-2,2s-2-0.8954-2-2V4z"/>
<path d="M24.83,14.44C24.74,14.29,22.47,11,17,11c-1.8574,0-3.3375,0.3837-4.4969,0.8921C11.3428,11.3839,9.8607,11,8,11
	c-5.47,0-7.74,3.3-7.83,3.45c-0.332,0.4413-0.2433,1.0683,0.1981,1.4003c0.4413,0.332,1.0683,0.2433,1.4003-0.1981
	C1.7906,15.6226,1.8112,15.5919,1.83,15.56c0,0,1.76-2.56,6.17-2.56s6.1,2.46,6.17,2.55c0.332,0.4414,0.9589,0.53,1.4003,0.1981
	c0.4072-0.3062,0.519-0.8695,0.2598-1.308c-0.0343-0.0572-0.3878-0.5709-1.1116-1.1841c0.0001,0.0001,0.0001,0.0001,0.0001,0.0001
	C15.3837,13.0992,16.1399,13,17,13c4.41,0,6.1,2.46,6.17,2.55c0.332,0.4414,0.9589,0.53,1.4003,0.1981
	C24.9774,15.4418,25.0892,14.8785,24.83,14.44z"/>
</svg>
