<svg xmlns="http://www.w3.org/2000/svg" width="64" height="64" viewBox="0 0 64 64"><path d="M62.24,47.76h0A47.84,47.84,0,0,0,41.76,38,14,14,0,0,0,46,28a3,3,0,0,0,3-3V23a3,3,0,0,0-1-2.22V12A12,12,0,0,0,36,0H28A12,12,0,0,0,16,12v8.78A3,3,0,0,0,15,23v2a3,3,0,0,0,3,3,14,14,0,0,0,4.24,10A47.85,47.85,0,0,0,1.74,47.74h0A6,6,0,0,0,0,52v8a4,4,0,0,0,4,4H60a4,4,0,0,0,4-4V52A6,6,0,0,0,62.24,47.76ZM18,12A10,10,0,0,1,28,2h8A10,10,0,0,1,46,12v7a6,6,0,0,0-6-6H34a4,4,0,0,1-4-4,1,1,0,0,0-2,0,4,4,0,0,1-4,4,6,6,0,0,0-6,6Zm2,16V27a1,1,0,0,0-1-1H18a1,1,0,0,1-1-1V23a1,1,0,0,1,1-1h1a1,1,0,0,0,1-1V19a4,4,0,0,1,4-4,6,6,0,0,0,5-2.69A6,6,0,0,0,34,15h6a4,4,0,0,1,4,4v2a1,1,0,0,0,1,1h1a1,1,0,0,1,1,1v2a1,1,0,0,1-1,1H45a1,1,0,0,0-1,1v1a12,12,0,0,1-24,0ZM32,42a13.93,13.93,0,0,0,7.71-2.32,45.79,45.79,0,0,1,4.89,1.08,17.85,17.85,0,0,1-25.25,0,45.81,45.81,0,0,1,4.93-1.1A13.93,13.93,0,0,0,32,42ZM62,60a2,2,0,0,1-2,2H4a2,2,0,0,1-2-2V52a4,4,0,0,1,1.17-2.83h0a45.93,45.93,0,0,1,14-7.71,19.91,19.91,0,0,0,29.53,0,45.93,45.93,0,0,1,14.09,7.73h0A4,4,0,0,1,62,52Z"/><path d="M24.54,21.86a1,1,0,0,0,1.34-.4A1.22,1.22,0,0,1,27,21a1.28,1.28,0,0,1,1.11.46A1,1,0,0,0,29,22a1,1,0,0,0,.46-.11,1,1,0,0,0,.43-1.35A3.21,3.21,0,0,0,27,19a3.16,3.16,0,0,0-2.9,1.56A1,1,0,0,0,24.54,21.86Z"/><path d="M34.54,21.86a1,1,0,0,0,1.34-.4A1.22,1.22,0,0,1,37,21a1.28,1.28,0,0,1,1.11.46A1,1,0,0,0,39,22a1,1,0,0,0,.46-.11,1,1,0,0,0,.43-1.35A3.21,3.21,0,0,0,37,19a3.16,3.16,0,0,0-2.9,1.56A1,1,0,0,0,34.54,21.86Z"/></svg>