<svg xmlns="http://www.w3.org/2000/svg" width="64" height="64" viewBox="0 0 64 64"><path d="M62.24,47.76h0A48.28,48.28,0,0,0,51.42,41.1,29.91,29.91,0,0,1,50,32V16A16,16,0,0,0,34,0H30A16,16,0,0,0,14,16V32a29.91,29.91,0,0,1-1.41,9.1A46.78,46.78,0,0,0,1.74,47.74h0A6,6,0,0,0,0,52v8a4,4,0,0,0,4,4H60a4,4,0,0,0,4-4V52A6,6,0,0,0,62.24,47.76ZM16,32V16A14,14,0,0,1,30,2h4A14,14,0,0,1,48,16V32a31.92,31.92,0,0,0,1.06,8.11,50,50,0,0,0-8.8-2.46A23,23,0,0,0,46,22V21a8,8,0,0,0-8-8H34a4,4,0,0,1-4-4,1,1,0,0,0-2,0,4,4,0,0,1-4,4,6,6,0,0,0-6,6v3a23,23,0,0,0,5.77,15.69,53.24,53.24,0,0,0-8.84,2.44A31.91,31.91,0,0,0,16,32Zm4-13a4,4,0,0,1,4-4,6,6,0,0,0,5-2.69A6,6,0,0,0,34,15h4a6,6,0,0,1,6,6v1c0,12-7.47,18-12,18S20,34,20,22Zm5.68,20.44A10.59,10.59,0,0,0,32,42a10.59,10.59,0,0,0,6.32-2.56,45.6,45.6,0,0,1,8,1.86L32.6,55c-.43.43-.75.45-1.18,0L17.71,41.3A45.6,45.6,0,0,1,25.68,39.44ZM62,60a2,2,0,0,1-2,2H4a2,2,0,0,1-2-2V52a4,4,0,0,1,1.17-2.83h0A46,46,0,0,1,15.62,42L29.79,56.21c1.5,1.5,2.91,1.5,4.41,0L48.38,42a46,46,0,0,1,12.45,7.13h0A4,4,0,0,1,62,52Z"/><path d="M25.88,22.47A1.22,1.22,0,0,1,27,22a1.28,1.28,0,0,1,1.11.46A1,1,0,0,0,29,23a1,1,0,0,0,.46-.11,1,1,0,0,0,.43-1.35A3.21,3.21,0,0,0,27,20a3.16,3.16,0,0,0-2.9,1.56,1,1,0,0,0,.44,1.3A1,1,0,0,0,25.88,22.47Z"/><path d="M34.54,22.86a1,1,0,0,0,1.34-.4A1.22,1.22,0,0,1,37,22a1.28,1.28,0,0,1,1.11.46A1,1,0,0,0,39,23a1,1,0,0,0,.46-.11,1,1,0,0,0,.43-1.35A3.21,3.21,0,0,0,37,20a3.16,3.16,0,0,0-2.9,1.56A1,1,0,0,0,34.54,22.86Z"/></svg>