<?xml version="1.0" encoding="UTF-8" standalone="no"?>
<!DOCTYPE svg PUBLIC "-//W3C//DTD SVG 1.1//EN" "http://www.w3.org/Graphics/SVG/1.1/DTD/svg11.dtd">
<svg width="100px" height="100px" version="1.1" xmlns="http://www.w3.org/2000/svg">
    <path d="M73.821,30.875C73.821,34.384 73.239,37.508 72.075,40.248C70.911,42.987 69.363,45.395 67.429,47.472C65.495,49.549 63.302,51.464 60.849,53.219C58.397,54.973 55.81,56.674 53.088,58.321L53.088,70.567L43.474,70.567L43.474,54.186C45.479,52.968 47.816,51.509 50.483,49.808C53.151,48.107 55.237,46.523 56.741,45.055C58.674,43.229 60.178,41.232 61.252,39.066C62.327,36.9 62.864,34.438 62.864,31.681C62.864,27.634 61.592,24.618 59.05,22.63C56.508,20.643 53.196,19.649 49.114,19.649C45.533,19.649 42.158,20.249 38.989,21.449C35.82,22.648 33.251,23.893 31.282,25.182L30.691,25.182L30.691,14.225C33.09,13.258 36.116,12.389 39.768,11.62C43.42,10.85 46.876,10.465 50.134,10.465C57.475,10.465 63.258,12.336 67.483,16.078C71.708,19.819 73.821,24.752 73.821,30.875ZM53.948,92.052L42.991,92.052L42.991,80.719L53.948,80.719L53.948,92.052Z" style="fill-rule:nonzero;"/>
</svg>
