<?xml version="1.0" encoding="UTF-8" standalone="no"?>
<!DOCTYPE svg PUBLIC "-//W3C//DTD SVG 1.1//EN" "http://www.w3.org/Graphics/SVG/1.1/DTD/svg11.dtd">
<svg width="100px" height="100px" version="1.1" xmlns="http://www.w3.org/2000/svg" xmlns:xlink="http://www.w3.org/1999/xlink" xml:space="preserve" xmlns:serif="http://www.serif.com/" style="fill-rule:evenodd;clip-rule:evenodd;stroke-linejoin:round;stroke-miterlimit:2;">
    <path d="M49.821,84.999C42.296,84.91 42.214,80 35,80C27.73,80 26.923,85 18,85C25.994,64.364 26.207,43.95 26.067,37.884C26.023,37.287 26,36.684 26,36.076C26,22.83 36.754,12.076 50,12.076L50.155,12.077C63.33,12.16 74,22.882 74,36.076C74,36.684 73.977,37.287 73.933,37.884C73.793,43.95 74.006,64.364 82,85C73.077,85 72.27,80 65,80C57.73,80 57.703,84.988 50,85L49.821,84.999ZM42,30C44.208,30 46,31.792 46,34C46,36.208 44.208,38 42,38C39.792,38 38,36.208 38,34C38,31.792 39.792,30 42,30ZM58,30C55.792,30 54,31.792 54,34C54,36.208 55.792,38 58,38C60.208,38 62,36.208 62,34C62,31.792 60.208,30 58,30Z"/>
</svg>
