<svg width="16" height="16" xmlns="http://www.w3.org/2000/svg" style="fill-rule:evenodd"><path style="fill:#e8ad37" d="M2 2h3v6H2z"/><path d="M5 2H2v6h3V2zm-.5.5v5h-2v-5h2z" style="fill-opacity:.4"/><path d="M3 15h10V7L7.999 2.307 3 7v8z" style="fill:#fff"/><path style="fill:#d5d6d7" d="M3 13h10v1H3zM3 11h10v1H3zM3 9h10v1H3zM3 7h10v1H3zM4 5h8v1H4z"/><path style="fill:url(#a)" d="M6 9h4v6H6z"/><path style="fill:url(#b)" d="M6 6h4v2H6z"/><path style="fill:#eabf6a" d="M7 12h1v1H7z"/><path d="M2 8v8h12V8h-1v7H3V8H2z" style="fill:url(#c)"/><path d="m1 8 7-7 7 7-1 1-6-6-6 6-1-1z" style="fill:#fff"/><path d="M8 .293.293 8 2 9.707l6-6 6 6L15.707 8 8 .293zM1.707 8 8 1.707 14.293 8 14 8.293l-6-6-6 6L1.707 8z" style="fill:#497cb0"/><defs><linearGradient id="a" x1="0" y1="0" x2="1" y2="0" gradientUnits="userSpaceOnUse" gradientTransform="matrix(0 6 -2.66667 0 6 9)"><stop offset="0" style="stop-color:#83a5cd"/><stop offset="1" style="stop-color:#7291b5"/></linearGradient><linearGradient id="b" x1="0" y1="0" x2="1" y2="0" gradientUnits="userSpaceOnUse" gradientTransform="matrix(0 2 -2.66667 0 6 6)"><stop offset="0" style="stop-color:#83a5cd"/><stop offset="1" style="stop-color:#7291b5"/></linearGradient><linearGradient id="c" x1="0" y1="0" x2="1" y2="0" gradientUnits="userSpaceOnUse" gradientTransform="matrix(0 5 -5 0 3 10)"><stop offset="0" style="stop-color:#9a9a9b"/><stop offset="1" style="stop-color:#7e7e7f"/></linearGradient></defs></svg>