<?xml version="1.0" encoding="UTF-8" standalone="no"?>
<!DOCTYPE svg PUBLIC "-//W3C//DTD SVG 1.1//EN" "http://www.w3.org/Graphics/SVG/1.1/DTD/svg11.dtd">
<svg width="15px" height="64px" version="1.1" xmlns="http://www.w3.org/2000/svg" xmlns:xlink="http://www.w3.org/1999/xlink" xml:space="preserve" xmlns:serif="http://www.serif.com/" style="fill-rule:evenodd;clip-rule:evenodd;stroke-linejoin:round;stroke-miterlimit:2;">
    <rect id="feedback_iconset" x="0" y="0" width="15" height="64" style="fill:none;"/>
    <clipPath id="_clip1">
        <rect x="0" y="0" width="15" height="64"/>
    </clipPath>
    <g clip-path="url(#_clip1)">
        <path d="M7,19.036C7.01,17.358 8.351,16 10,16C11.656,16 13,17.369 13,19.056C13,22.824 7,27 7,27C7,27 1,22.824 1,19.056L1,19.036C1.01,17.358 2.351,16 4,16C5.656,16 7,17.369 7,19.056L7,19.036Z"/>
        <path d="M5,52L2,52C1.448,52 1,52.448 1,53L1,55C1,55.552 1.448,56 2,56L5,56L5,59C5,59.552 5.448,60 6,60L8,60C8.552,60 9,59.552 9,59L9,56L12,56C12.552,56 13,55.552 13,55L13,53C13,52.448 12.552,52 12,52L9,52L9,49C9,48.448 8.552,48 8,48L6,48C5.448,48 5,48.448 5,49L5,52Z"/>
        <path d="M-0,11C-0,10.141 0.933,9.385 2.348,8.96C2.702,8.851 2.937,8.57 2.937,8.256C2.937,8.164 2.937,8.075 2.935,8.003C2.935,7.895 2.887,7.79 2.801,7.709C1.992,6.929 1.469,5.682 1.469,4.278C1.469,1.917 2.949,-0 4.773,-0L4.794,0C6.608,0.015 8.077,1.926 8.077,4.278C8.077,5.682 7.553,6.929 6.745,7.709C6.658,7.79 6.61,7.895 6.61,8.003C6.608,8.075 6.608,8.164 6.608,8.256C6.609,8.57 6.844,8.851 7.197,8.96C8.612,9.385 9.545,10.141 9.545,11L-0,11Z"/>
        <path d="M7.5,11C7.5,10.278 8.356,9.653 9.604,9.371C9.972,9.28 10.227,8.981 10.227,8.639C10.227,8.611 10.227,8.583 10.217,8.556C10.217,8.37 10.124,8.193 9.965,8.074C9.303,7.531 8.864,6.581 8.864,5.5C8.864,3.814 9.933,2.444 11.25,2.444L11.265,2.445C12.575,2.455 13.636,3.82 13.636,5.5C13.636,6.581 13.197,7.531 12.535,8.074C12.376,8.193 12.283,8.37 12.283,8.556C12.273,8.583 12.273,8.611 12.273,8.639C12.273,8.981 12.528,9.28 12.896,9.371C14.144,9.653 15,10.278 15,11L7.5,11Z"/>
        <path d="M2,35L2,43C2,43.552 2.448,44 3,44L8,44C8.552,44 9,43.552 9,43L9,42C9,41.448 8.552,41 8,41L5,41L5,37L10,37L10,39L10.5,39L14,35.75L14,35.25L10.5,32L10,32L10,34L3,34C2.448,34 2,34.448 2,35Z"/>
    </g>
</svg>
