<svg width="32" height="256" viewBox="0 0 32 256" xmlns="http://www.w3.org/2000/svg">
	<defs>
		<path id="p" d="M13 12a2.4 2.4 0 0 1-1.771-.729A2.4 2.4 0 0 1 10.5 9.5q0-1.041.729-1.771A2.4 2.4 0 0 1 13 7q1.041 0 1.771.729.729.73.729 1.771t-.729 1.771A2.4 2.4 0 0 1 13 12m-4.25 5a.72.72 0 0 1-.534-.216A.72.72 0 0 1 8 16.25v-.562q0-.584.302-1.063t.802-.729A8.85 8.85 0 0 1 13 13a8.8 8.8 0 0 1 3.896.896q.5.25.802.729T18 15.688v.562a.72.72 0 0 1-.216.534.72.72 0 0 1-.534.216zm.771-1.5h6.958a4.6 4.6 0 0 0-1.5-.74q-.875-.26-1.979-.26t-1.979.26a4.6 4.6 0 0 0-1.5.74m3.479-5a.97.97 0 0 0 .713-.287A.97.97 0 0 0 14 9.5a.97.97 0 0 0-.287-.712A.97.97 0 0 0 13 8.5a.97.97 0 0 0-.713.288A.97.97 0 0 0 12 9.5q0 .425.287.713.288.287.713.287m-4.749 1.25H3.756a.74.74 0 0 1-.537-.214.7.7 0 0 1-.219-.532q0-.316.215-.535a.72.72 0 0 1 .534-.219h4.495q.318 0 .537.214t.219.532a.74.74 0 0 1-.215.535.72.72 0 0 1-.534.219m3-6.25H3.756a.74.74 0 0 1-.537-.214A.7.7 0 0 1 3 4.754q0-.316.215-.535A.72.72 0 0 1 3.749 4h7.495q.318 0 .537.214t.219.532a.74.74 0 0 1-.215.535.72.72 0 0 1-.534.219M9.104 8.625h-5.35a.73.73 0 0 1-.537-.214A.72.72 0 0 1 3 7.879a.73.73 0 0 1 .217-.535.73.73 0 0 1 .538-.219h6.037a3.7 3.7 0 0 0-.419.704 4 4 0 0 0-.269.796"/>
	</defs>
	<use href="#p" x="6" y="6" fill="#8B4C23"/>
	<use href="#p" x="6" y="38" fill="#764F14"/>
	<use href="#p" x="6" y="70" fill="#817945"/>
	<use href="#p" x="6" y="102" fill="#37702A"/>
	<use href="#p" x="6" y="134" fill="#4C7171"/>
	<use href="#p" x="6" y="166" fill="#0B5588"/>
	<use href="#p" x="6" y="198" fill="#2F54AA"/>
	<use href="#p" x="6" y="230" fill="#80478F"/>
</svg>