<?xml version="1.0" encoding="UTF-8" standalone="no"?>
<!DOCTYPE svg PUBLIC "-//W3C//DTD SVG 1.1//EN" "http://www.w3.org/Graphics/SVG/1.1/DTD/svg11.dtd">
<svg width="16px" height="16px" version="1.1" xmlns="http://www.w3.org/2000/svg" xmlns:xlink="http://www.w3.org/1999/xlink" xml:space="preserve" xmlns:serif="http://www.serif.com/" style="fill-rule:evenodd;clip-rule:evenodd;stroke-linejoin:round;stroke-miterlimit:2;">
    <path d="M1,6L6,6L6,1L10,1L10,6L15,6L15,10L10,10L10,15L6,15L6,10L1,10L1,6Z" style="fill:url(#_Linear1);"/>
    <path d="M1,5L-0,5L0,11L5,11C5,11 5,16 5,16L11,16L11,11C11,11 16,11 16,11L16,5L11,5C11,5 11,-0 11,-0L5,0L5,5C5,5 1,5 1,5ZM1,6L6,6L6,1L10,1L10,6L15,6L15,10L10,10L10,15L6,15L6,10L1,10L1,6Z" style="fill:url(#_Linear2);"/>
    <rect x="6" y="1" width="4" height="1" style="fill:#dbe7cd;"/>
    <rect x="1" y="6" width="5" height="1" style="fill:#bdd8a0;"/>
    <rect x="10" y="6" width="5" height="1" style="fill:#bdd8a0;"/>
    <defs>
        <linearGradient id="_Linear1" x1="0" y1="0" x2="1" y2="0" gradientUnits="userSpaceOnUse" gradientTransform="matrix(7.9602e-16,13,-13,7.9602e-16,8,2)"><stop offset="0" style="stop-color:#8bbd56;stop-opacity:1"/><stop offset="1" style="stop-color:#8dbf56;stop-opacity:1"/></linearGradient>
        <linearGradient id="_Linear2" x1="0" y1="0" x2="1" y2="0" gradientUnits="userSpaceOnUse" gradientTransform="matrix(8.57253e-16,14,-14,8.57253e-16,8,1)"><stop offset="0" style="stop-color:#5e9e50;stop-opacity:1"/><stop offset="1" style="stop-color:#37702a;stop-opacity:1"/></linearGradient>
    </defs>
</svg>
