<svg width="18" height="18" xmlns="http://www.w3.org/2000/svg"><path d="M1.803 6.803h5v-5h4v5h5v4h-5v5h-4v-5h-5v-4z" style="fill:url(#a)"/><path d="M1.803 5.803h-1v6h5v5h6v-5h5v-6h-5v-5h-6v5h-4zm0 1h5v-5h4v5h5v4h-5v5h-4v-5h-5v-4z" style="fill:url(#b)"/><path style="fill:#dbe7cd" d="M6.803 1.803h4v1h-4z"/><path style="fill:#bdd8a0" d="M1.803 6.803h5v1h-5zM10.803 6.803h5v1h-5z"/><defs><linearGradient id="a" x1="0" y1="0" x2="1" y2="0" gradientUnits="userSpaceOnUse" gradientTransform="rotate(90 3 5.803) scale(13)"><stop offset="0" style="stop-color:#8bbd56"/><stop offset="1" style="stop-color:#8dbf56"/></linearGradient><linearGradient id="b" x1="0" y1="0" x2="1" y2="0" gradientUnits="userSpaceOnUse" gradientTransform="rotate(90 3.5 5.303) scale(14)"><stop offset="0" style="stop-color:#5e9e50"/><stop offset="1" style="stop-color:#37702a"/></linearGradient></defs></svg>