<svg width="18" height="16" xmlns="http://www.w3.org/2000/svg" style="fill-rule:evenodd;clip-rule:evenodd;stroke-linejoin:round;stroke-miterlimit:2"><path d="M12.803 8.74a2 2 0 1 1 1 0v2.063c2 0 2 2 2 2v1h-5v-1s0-2 2-2V8.74z" style="fill:url(#a)"/><path d="M11.803 9.401v.534c-2 .578-2 2.868-2 2.868v2h7v-2s0-2.29-2-2.869v-.533a3.001 3.001 0 0 0-1.5-5.598 3.001 3.001 0 0 0-1.5 5.598zm1-.661a2 2 0 1 1 1 0v2.063c2 0 2 2 2 2v1h-5v-1s0-2 2-2V8.74z" style="fill:#626465"/><path d="M12.803 8.74a2 2 0 1 1 1 0v2.063c2 0 2 2 2 2v1h-5v-1s0-2 2-2V8.74zm.5 3.005a1.064 1.064 0 0 1-.5.124c-.781 0-.909.654-.929.867h2.858c-.021-.213-.148-.867-.929-.867-.181 0-.351-.045-.5-.124zm0-3.947c.073-.039.151-.07.233-.091a.934.934 0 1 0-.467 0c.083.021.161.052.234.091z" style="fill:url(#b)"/><path d="M4.803 7.401a3 3 0 1 1 3 0v2.402c2 0 3 2 3 2v2h-9v-2s1-2 3-2V7.401z" style="fill:url(#c)"/><path d="M3.803 7.925v1.011c-1.921.525-2.895 2.42-2.895 2.42l-.105.211v3.236h11v-3.236l-.106-.211s-.973-1.895-2.894-2.42V7.925a3.994 3.994 0 0 0 1.5-3.122c0-2.208-1.793-4-4-4a4.001 4.001 0 0 0-2.5 7.122zm1-.524a3 3 0 1 1 3 0v2.402c2 0 3 2 3 2v2h-9v-2s1-2 3-2V7.401z" style="fill:#3f698e"/><path d="M4.803 7.401a3 3 0 1 1 3 0v2.402c2 0 3 2 3 2v2h-9v-2s1-2 3-2V7.401zm1.066 0c0-.381-.202-.733-.532-.923a1.935 1.935 0 0 1 .966-3.609 1.935 1.935 0 0 1 .965 3.609c-.329.19-.532.542-.532.923v2.402c0 .589.478 1.066 1.067 1.066 1.051 0 1.689.821 1.932 1.21l.001.657H2.869v-.656c.245-.39.882-1.211 1.934-1.211.589 0 1.066-.477 1.066-1.066V7.401z" style="fill:url(#d)"/><defs><linearGradient id="a" x1="0" y1="0" x2="1" y2="0" gradientUnits="userSpaceOnUse" gradientTransform="matrix(0 7.71429 -4.97041 0 13.495 5.446)"><stop offset="0" style="stop-color:#bcbdbd;stop-opacity:1"/><stop offset=".25" style="stop-color:#929494;stop-opacity:1"/><stop offset=".5" style="stop-color:#929494;stop-opacity:1"/><stop offset=".75" style="stop-color:#94989b;stop-opacity:1"/><stop offset="1" style="stop-color:#8a8c8d;stop-opacity:1"/></linearGradient><linearGradient id="b" x1="0" y1="0" x2="1" y2="0" gradientUnits="userSpaceOnUse" gradientTransform="matrix(0 9 -9.69231 0 12.803 4.803)"><stop offset="0" style="stop-color:white;stop-opacity:1"/><stop offset=".3" style="stop-color:white;stop-opacity:.1"/><stop offset=".6" style="stop-color:white;stop-opacity:.1"/><stop offset=".76" style="stop-color:white;stop-opacity:1"/><stop offset="1" style="stop-color:white;stop-opacity:.1"/></linearGradient><linearGradient id="c" x1="0" y1="0" x2="1" y2="0" gradientUnits="userSpaceOnUse" gradientTransform="matrix(0 10.2857 -8.94675 0 6.649 2.66)"><stop offset="0" style="stop-color:#bbd8f4;stop-opacity:1"/><stop offset=".25" style="stop-color:#9abad7;stop-opacity:1"/><stop offset=".5" style="stop-color:#a6c8e6;stop-opacity:1"/><stop offset=".75" style="stop-color:#b8d6f1;stop-opacity:1"/><stop offset="1" style="stop-color:#81a5c4;stop-opacity:1"/></linearGradient><linearGradient id="d" x1="0" y1="0" x2="1" y2="0" gradientUnits="userSpaceOnUse" gradientTransform="matrix(0 11 -11.8462 0 9.803 2.803)"><stop offset="0" style="stop-color:white;stop-opacity:1"/><stop offset=".27" style="stop-color:white;stop-opacity:.1"/><stop offset=".61" style="stop-color:white;stop-opacity:.1"/><stop offset=".76" style="stop-color:white;stop-opacity:1"/><stop offset="1" style="stop-color:white;stop-opacity:.1"/></linearGradient></defs></svg>