<?xml version="1.0" encoding="UTF-8" standalone="no"?>
<!DOCTYPE svg PUBLIC "-//W3C//DTD SVG 1.1//EN" "http://www.w3.org/Graphics/SVG/1.1/DTD/svg11.dtd">
<svg width="16px" height="16px" version="1.1" xmlns="http://www.w3.org/2000/svg" xmlns:xlink="http://www.w3.org/1999/xlink" xml:space="preserve" xmlns:serif="http://www.serif.com/" style="fill-rule:evenodd;clip-rule:evenodd;stroke-linejoin:round;stroke-miterlimit:2;">
    <path d="M12,7.937C11.138,7.715 10.5,6.931 10.5,6C10.5,4.896 11.396,4 12.5,4C13.604,4 14.5,4.896 14.5,6C14.5,6.931 13.862,7.715 13,7.937L13,10C15,10 15,12 15,12L15,13L10,13L10,12C10,12 10,10 12,10L12,7.937Z" style="fill:url(#_Linear1);"/>
    <path d="M11,8.598L11,9.132C9,9.71 9,12 9,12L9,14L16,14L16,12C16,12 16,9.71 14,9.132C14,9.132 14,8.598 14,8.598C14.896,8.079 15.5,7.109 15.5,6C15.5,4.344 14.156,3 12.5,3C10.844,3 9.5,4.344 9.5,6C9.5,7.109 10.104,8.079 11,8.598ZM12,7.937C11.138,7.715 10.5,6.931 10.5,6C10.5,4.896 11.396,4 12.5,4C13.604,4 14.5,4.896 14.5,6C14.5,6.931 13.862,7.715 13,7.937L13,10C15,10 15,12 15,12L15,13L10,13L10,12C10,12 10,10 12,10L12,7.937Z" style="fill:#626465;"/>
    <path d="M12,7.937C11.138,7.715 10.5,6.931 10.5,6C10.5,4.896 11.396,4 12.5,4C13.604,4 14.5,4.896 14.5,6C14.5,6.931 13.862,7.715 13,7.937L13,10C15,10 15,12 15,12L15,13L10,13L10,12C10,12 10,10 12,10L12,7.937ZM12.5,10.942C12.351,11.022 12.181,11.067 12,11.067C11.219,11.067 11.092,11.72 11.071,11.933L13.929,11.933C13.908,11.72 13.781,11.067 13,11.067C12.819,11.067 12.649,11.022 12.5,10.942ZM12.5,6.995C12.573,6.956 12.651,6.925 12.734,6.904C13.136,6.8 13.433,6.434 13.433,6C13.433,5.485 13.015,5.067 12.5,5.067C11.985,5.067 11.567,5.485 11.567,6C11.567,6.434 11.864,6.8 12.266,6.904C12.349,6.925 12.427,6.956 12.5,6.995Z" style="fill:url(#_Linear2);"/>
    <path d="M4,6.598C3.104,6.079 2.5,5.11 2.5,4C2.5,2.344 3.844,1 5.5,1C7.156,1 8.5,2.344 8.5,4C8.5,5.11 7.896,6.079 7,6.598L7,9C9,9 10,11 10,11L10,13L1,13L1,11C1,11 2,9 4,9L4,6.598Z" style="fill:url(#_Linear3);"/>
    <path d="M3,7.122L3,8.133C1.079,8.658 0.106,10.553 0.106,10.553L-0,10.764L0,14L11,14L11,10.764L10.894,10.553C10.894,10.553 9.921,8.658 8,8.133C8,8.133 8,7.122 8,7.122C8.914,6.389 9.5,5.262 9.5,4C9.5,1.792 7.708,0 5.5,0C3.292,0 1.5,1.792 1.5,4C1.5,5.262 2.086,6.389 3,7.122ZM4,6.598C3.104,6.079 2.5,5.11 2.5,4C2.5,2.344 3.844,1 5.5,1C7.156,1 8.5,2.344 8.5,4C8.5,5.11 7.896,6.079 7,6.598L7,9C9,9 10,11 10,11L10,13L1,13L1,11C1,11 2,9 4,9L4,6.598Z" style="fill:#3f698e;"/>
    <path d="M4,6.598C3.104,6.079 2.5,5.11 2.5,4C2.5,2.344 3.844,1 5.5,1C7.156,1 8.5,2.344 8.5,4C8.5,5.11 7.896,6.079 7,6.598L7,9C9,9 10,11 10,11L10,13L1,13L1,11C1,11 2,9 4,9L4,6.598ZM5.067,6.598C5.067,6.217 4.864,5.866 4.534,5.675C3.956,5.34 3.567,4.715 3.567,4C3.567,2.933 4.433,2.067 5.5,2.067C6.567,2.067 7.433,2.933 7.433,4C7.433,4.715 7.044,5.34 6.466,5.675C6.136,5.866 5.933,6.217 5.933,6.598L5.933,9C5.933,9.589 6.411,10.067 7,10.067C8.051,10.067 8.689,10.887 8.933,11.277C8.933,11.278 8.933,11.933 8.933,11.933C8.933,11.933 2.067,11.933 2.067,11.933C2.067,11.933 2.067,11.278 2.067,11.278C2.311,10.887 2.949,10.067 4,10.067C4.589,10.067 5.067,9.589 5.067,9L5.067,6.598Z" style="fill:url(#_Linear4);"/>
    <defs>
        <linearGradient id="_Linear1" x1="0" y1="0" x2="1" y2="0" gradientUnits="userSpaceOnUse" gradientTransform="matrix(2.82611e-16,7.71429,-4.97041,5.08699e-16,12.6923,4.64286)"><stop offset="0" style="stop-color:#bcbdbd;stop-opacity:1"/><stop offset="0.25" style="stop-color:#929494;stop-opacity:1"/><stop offset="0.5" style="stop-color:#929494;stop-opacity:1"/><stop offset="0.75" style="stop-color:#94989b;stop-opacity:1"/><stop offset="1" style="stop-color:#8a8c8d;stop-opacity:1"/></linearGradient>
        <linearGradient id="_Linear2" x1="0" y1="0" x2="1" y2="0" gradientUnits="userSpaceOnUse" gradientTransform="matrix(5.51091e-16,9,-9.69231,5.93483e-16,12,4)"><stop offset="0" style="stop-color:#fff;stop-opacity:1"/><stop offset="0.3" style="stop-color:#fff;stop-opacity:0.1"/><stop offset="0.6" style="stop-color:#fff;stop-opacity:0.1"/><stop offset="0.76" style="stop-color:#fff;stop-opacity:1"/><stop offset="1" style="stop-color:#fff;stop-opacity:0.1"/></linearGradient>
        <linearGradient id="_Linear3" x1="0" y1="0" x2="1" y2="0" gradientUnits="userSpaceOnUse" gradientTransform="matrix(5.08699e-16,10.2857,-8.94675,6.78266e-16,5.84615,1.85714)"><stop offset="0" style="stop-color:#bbd8f4;stop-opacity:1"/><stop offset="0.25" style="stop-color:#9abad7;stop-opacity:1"/><stop offset="0.5" style="stop-color:#a6c8e6;stop-opacity:1"/><stop offset="0.75" style="stop-color:#b8d6f1;stop-opacity:1"/><stop offset="1" style="stop-color:#81a5c4;stop-opacity:1"/></linearGradient>
        <linearGradient id="_Linear4" x1="0" y1="0" x2="1" y2="0" gradientUnits="userSpaceOnUse" gradientTransform="matrix(6.73556e-16,11,-11.8462,7.25368e-16,9,2)"><stop offset="0" style="stop-color:#fff;stop-opacity:1"/><stop offset="0.27" style="stop-color:#fff;stop-opacity:0.1"/><stop offset="0.61" style="stop-color:#fff;stop-opacity:0.1"/><stop offset="0.76" style="stop-color:#fff;stop-opacity:1"/><stop offset="1" style="stop-color:#fff;stop-opacity:0.1"/></linearGradient>
    </defs>
</svg>
