<svg xmlns="http://www.w3.org/2000/svg" xml:space="preserve" width="11" height="33"><path d="M4 29.995V33l3.3-3.005h2.325c.759 0 1.375-.616 1.375-1.375v-5.245C11 22.616 10.384 22 9.625 22h-8.25C.616 22 0 22.616 0 23.375v5.245c0 .759.616 1.375 1.375 1.375zM5.5 2.76C5.51 1.235 6.738 0 8.25 0 9.768 0 11 1.245 11 2.778 11 6.204 5.5 10 5.5 10S0 6.204 0 2.778V2.76C.01 1.235 1.238 0 2.75 0 4.268 0 5.5 1.245 5.5 2.778zM7.45 14C8.495 11.835 11 11 11 11v10s-2.505-.835-3.55-3H5v3.5a.5.5 0 0 1-.5.5H4a1 1 0 0 1-1-1v-2a1 1 0 0 0-.994-1H1a1 1 0 0 1-1-1v-2a1 1 0 0 1 1-1z"/></svg>