<?xml version="1.0" encoding="utf-8"?>
<svg xmlns="http://www.w3.org/2000/svg"
	 viewBox="0 0 40 40">
	 <defs><filter id="s" height="40" y="-13"><feDropShadow dx="0" dy="2" stdDeviation="2" flood-opacity="0.3"/></filter></defs>
	 <g fill="#fff" filter="url(#s)">
	 	<path d="M30.5,13h-21C8.7,13,8,12.3,8,11.5v0C8,10.7,8.7,10,9.5,10h21c0.8,0,1.5,0.7,1.5,1.5v0C32,12.3,31.3,13,30.5,13z"/>
<path d="M30.5,21h-21C8.7,21,8,20.3,8,19.5v0C8,18.7,8.7,18,9.5,18h21c0.8,0,1.5,0.7,1.5,1.5v0C32,20.3,31.3,21,30.5,21z"/>
<path d="M30.5,29h-21C8.7,29,8,28.3,8,27.5v0C8,26.7,8.7,26,9.5,26h21c0.8,0,1.5,0.7,1.5,1.5v0C32,28.3,31.3,29,30.5,29z"/>
</g>
</svg>
