<svg width="14" height="16" xmlns="http://www.w3.org/2000/svg" style="fill-rule:evenodd"><path fill="#f7f7f7" d="M1 2h1v13H1z"/><path style="fill:url(#a)" d="M2 1h11v14H2z"/><path d="M1 2V0h13v16H1v-1h12V1H2v1H1zm0 12H0v1h1v-1zm1-1H1v1h1v-1zm-1-1H0v1h1v-1zm1-1H1v1h1v-1zm-1-1H0v1h1v-1zm1-1H1v1h1V9zM1 8H0v1h1V8zm1-1H1v1h1V7zM1 6H0v1h1V6zm1-1H1v1h1V5zM1 4H0v1h1V4zm1-1H1v1h1V3zM1 2H0v1h1V2z" style="fill:url(#b)"/><path d="M3 8V3h8v4H9v1H3zM3 9h8v3H9v1H3V9" style="fill-opacity:.25"/><defs><linearGradient id="a" x1="0" y1="0" x2="1" y2="0" gradientUnits="userSpaceOnUse" gradientTransform="matrix(9 12 -12 9 3 2)"><stop offset="0" style="stop-color:#fff"/><stop offset="1" style="stop-color:#d5d6d7"/></linearGradient><linearGradient id="b" x1="0" y1="0" x2="1" y2="0" gradientUnits="userSpaceOnUse" gradientTransform="matrix(13 16 -16 13 1 0)"><stop offset="0" style="stop-color:#a6a6a6"/><stop offset="1" style="stop-color:#737374"/></linearGradient></defs></svg>