<?xml version="1.0" encoding="UTF-8" standalone="no"?>
<!DOCTYPE svg PUBLIC "-//W3C//DTD SVG 1.1//EN" "http://www.w3.org/Graphics/SVG/1.1/DTD/svg11.dtd">
<svg width="16px" height="16px" version="1.1" xmlns="http://www.w3.org/2000/svg" xmlns:xlink="http://www.w3.org/1999/xlink" xml:space="preserve" xmlns:serif="http://www.serif.com/" style="fill-rule:evenodd;clip-rule:evenodd;stroke-linejoin:round;stroke-miterlimit:2;">
    <path d="M7,7.663C5.818,7.101 5,5.895 5,4.5C5,2.568 6.568,1 8.5,1C10.432,1 12,2.568 12,4.5C12,5.895 11.182,7.101 10,7.663L10,10C14,10 15,13 15,13L15,15L2,15L2,13C2,13 3,10 7,10L7,7.663Z" style="fill:url(#_Linear1);"/>
    <path d="M6,8.241L6,9.057C2.038,9.521 1.051,12.684 1.051,12.684L1,12.838L1,16L16,16L16,12.838L15.949,12.684C15.949,12.684 14.962,9.521 11,9.057C11,9.057 11,8.241 11,8.241C12.206,7.434 13,6.059 13,4.5C13,2.016 10.984,0 8.5,0C6.016,0 4,2.016 4,4.5C4,6.059 4.794,7.434 6,8.241ZM7,7.663C5.818,7.101 5,5.895 5,4.5C5,2.568 6.568,1 8.5,1C10.432,1 12,2.568 12,4.5C12,5.895 11.182,7.101 10,7.663L10,10C14,10 15,13 15,13L15,15L2,15L2,13C2,13 3,10 7,10L7,7.663Z" style="fill:#3f698e;"/>
    <path d="M7,7.663C5.818,7.101 5,5.895 5,4.5C5,2.568 6.568,1 8.5,1C10.432,1 12,2.568 12,4.5C12,5.895 11.182,7.101 10,7.663L10,10C14,10 15,13 15,13L15,15L2,15L2,13C2,13 3,10 7,10L7,7.663ZM8.067,7.663C8.067,7.251 7.83,6.876 7.458,6.699C6.636,6.308 6.067,5.47 6.067,4.5C6.067,3.157 7.157,2.067 8.5,2.067C9.843,2.067 10.933,3.157 10.933,4.5C10.933,5.47 10.364,6.308 9.542,6.699C9.17,6.876 8.933,7.251 8.933,7.663L8.933,10C8.933,10.589 9.411,11.067 10,11.067C12.701,11.067 13.703,12.738 13.933,13.213C13.933,13.214 13.933,13.933 13.933,13.933C13.933,13.933 3.067,13.933 3.067,13.933C3.067,13.933 3.067,13.214 3.067,13.214C3.297,12.738 4.299,11.067 7,11.067C7.589,11.067 8.067,10.589 8.067,10L8.067,7.663Z" style="fill:url(#_Linear2);"/>
    <defs>
        <linearGradient id="_Linear1" x1="0" y1="0" x2="1" y2="0" gradientUnits="userSpaceOnUse" gradientTransform="matrix(7.34788e-16,12,-12.9231,7.9131e-16,9,2)"><stop offset="0" style="stop-color:#bbd8f4;stop-opacity:1"/><stop offset="0.25" style="stop-color:#9abad7;stop-opacity:1"/><stop offset="0.5" style="stop-color:#a6c8e6;stop-opacity:1"/><stop offset="0.75" style="stop-color:#b8d6f1;stop-opacity:1"/><stop offset="1" style="stop-color:#81a5c4;stop-opacity:1"/></linearGradient>
        <linearGradient id="_Linear2" x1="0" y1="0" x2="1" y2="0" gradientUnits="userSpaceOnUse" gradientTransform="matrix(8.57253e-16,14,-15.0769,9.23195e-16,9,1)"><stop offset="0" style="stop-color:#fff;stop-opacity:1"/><stop offset="0.3" style="stop-color:#fff;stop-opacity:0.1"/><stop offset="0.6" style="stop-color:#fff;stop-opacity:0.1"/><stop offset="0.76" style="stop-color:#fff;stop-opacity:1"/><stop offset="1" style="stop-color:#fff;stop-opacity:0.1"/></linearGradient>
    </defs>
</svg>
