<svg width="17" height="18" xmlns="http://www.w3.org/2000/svg" style="fill-rule:evenodd;clip-rule:evenodd;stroke-linejoin:round;stroke-miterlimit:2"><path d="M6.803 8.465a3.501 3.501 0 0 1 1.5-6.662 3.501 3.501 0 0 1 1.5 6.662v2.338c4 0 5 3 5 3v2h-13v-2s1-3 5-3V8.465z" style="fill:url(#a)"/><path d="M5.803 9.044v.816C1.84 10.324.854 13.487.854 13.487l-.051.153v3.163h15V13.64l-.052-.153s-.986-3.163-4.948-3.627v-.816a4.497 4.497 0 0 0 2-3.741c0-2.484-2.017-4.5-4.5-4.5a4.502 4.502 0 0 0-4.5 4.5c0 1.559.794 2.934 2 3.741zm1-.579a3.501 3.501 0 0 1 1.5-6.662 3.501 3.501 0 0 1 1.5 6.662v2.338c4 0 5 3 5 3v2h-13v-2s1-3 5-3V8.465z" style="fill:#3f698e"/><path d="M6.803 8.465a3.501 3.501 0 0 1 1.5-6.662 3.501 3.501 0 0 1 1.5 6.662v2.338c4 0 5 3 5 3v2h-13v-2s1-3 5-3V8.465zm1.066 0c0-.411-.236-.786-.608-.963a2.436 2.436 0 0 1-1.392-2.199 2.436 2.436 0 0 1 2.434-2.434 2.435 2.435 0 0 1 1.042 4.633 1.067 1.067 0 0 0-.609.963v2.338c0 .589.478 1.066 1.067 1.066 2.701 0 3.703 1.672 3.933 2.147v.72H2.869v-.72c.231-.475 1.233-2.147 3.934-2.147.589 0 1.066-.477 1.066-1.066V8.465z" style="fill:url(#b)"/><defs><linearGradient id="a" x1="0" y1="0" x2="1" y2="0" gradientUnits="userSpaceOnUse" gradientTransform="matrix(0 12 -12.9231 0 8.803 2.803)"><stop offset="0" style="stop-color:#bbd8f4;stop-opacity:1"/><stop offset=".25" style="stop-color:#9abad7;stop-opacity:1"/><stop offset=".5" style="stop-color:#a6c8e6;stop-opacity:1"/><stop offset=".75" style="stop-color:#b8d6f1;stop-opacity:1"/><stop offset="1" style="stop-color:#81a5c4;stop-opacity:1"/></linearGradient><linearGradient id="b" x1="0" y1="0" x2="1" y2="0" gradientUnits="userSpaceOnUse" gradientTransform="matrix(0 14 -15.0769 0 8.803 1.803)"><stop offset="0" style="stop-color:white;stop-opacity:1"/><stop offset=".3" style="stop-color:white;stop-opacity:.1"/><stop offset=".6" style="stop-color:white;stop-opacity:.1"/><stop offset=".76" style="stop-color:white;stop-opacity:1"/><stop offset="1" style="stop-color:white;stop-opacity:.1"/></linearGradient></defs></svg>