<?xml version="1.0" encoding="UTF-8" standalone="no"?>
<!DOCTYPE svg PUBLIC "-//W3C//DTD SVG 1.1//EN" "http://www.w3.org/Graphics/SVG/1.1/DTD/svg11.dtd">
<svg width="16px" height="16px" version="1.1" xmlns="http://www.w3.org/2000/svg" xmlns:xlink="http://www.w3.org/1999/xlink" xml:space="preserve" xmlns:serif="http://www.serif.com/" style="fill-rule:evenodd;clip-rule:evenodd;stroke-linejoin:round;stroke-miterlimit:2;">
    <rect x="3" y="0" width="13" height="12" style="fill:url(#_Linear1);"/>
    <path d="M16,0L3,0L3,12L16,12L16,0ZM15,1L15,11C15,11 4,11 4,11C4,11 4,1 4,1L15,1Z" style="fill-opacity:0.4;"/>
    <rect x="5" y="2" width="9" height="8" style="fill:url(#_Radial2);"/>
    <rect x="0" y="3" width="13" height="12" style="fill:url(#_Linear3);"/>
    <path d="M13,3L0,3L0,15L13,15L13,3ZM12,4L12,14C12,14 1,14 1,14C1,14 1,4 1,4L12,4Z" style="fill-opacity:0.4;"/>
    <rect x="2" y="5" width="9" height="8" style="fill:url(#_Radial4);"/>
    <path d="M3,13L6.998,7.429L10.548,13L3,13Z" style="fill:#7c7c7c;"/>
    <path d="M3.96,11.663L6.998,7.429L9.443,11.266L6.5,10.214L3.96,11.663Z" style="fill:#f7f7f7;"/>
    <defs>
        <linearGradient id="_Linear1" x1="0" y1="0" x2="1" y2="0" gradientUnits="userSpaceOnUse" gradientTransform="matrix(9,8,-8,9,5,2)"><stop offset="0" style="stop-color:#fefefe;stop-opacity:1"/><stop offset="1" style="stop-color:#dfdfdf;stop-opacity:1"/></linearGradient>
        <radialGradient id="_Radial2" cx="0" cy="0" r="1" gradientUnits="userSpaceOnUse" gradientTransform="matrix(-5,-7,7,-5,10,9)"><stop offset="0" style="stop-color:#93b7d7;stop-opacity:1"/><stop offset="1" style="stop-color:#6c9ac2;stop-opacity:1"/></radialGradient>
        <linearGradient id="_Linear3" x1="0" y1="0" x2="1" y2="0" gradientUnits="userSpaceOnUse" gradientTransform="matrix(9,8,-8,9,2,5)"><stop offset="0" style="stop-color:#fefefe;stop-opacity:1"/><stop offset="1" style="stop-color:#dfdfdf;stop-opacity:1"/></linearGradient>
        <radialGradient id="_Radial4" cx="0" cy="0" r="1" gradientUnits="userSpaceOnUse" gradientTransform="matrix(-5,-7,7,-5,7,12)"><stop offset="0" style="stop-color:#93b7d7;stop-opacity:1"/><stop offset="1" style="stop-color:#6c9ac2;stop-opacity:1"/></radialGradient>
    </defs>
</svg>
