<?xml version="1.0" encoding="UTF-8" standalone="no"?>
<!DOCTYPE svg PUBLIC "-//W3C//DTD SVG 1.1//EN" "http://www.w3.org/Graphics/SVG/1.1/DTD/svg11.dtd">
<svg width="11px" height="9px" version="1.1" xmlns="http://www.w3.org/2000/svg">
    <g>
        <path d="M3.5,0.497C3.502,0.222 3.725,0 4,0L7,0C7.276,0 7.5,0.224 7.5,0.5L7.5,0.503C7.502,0.778 7.725,1 8,1L9.5,1C10.328,1 11,1.672 11,2.5L11,7.5C11,8.328 10.328,9 9.5,9L1.5,9C0.672,9 0,8.328 0,7.5L0,2.5C0,1.672 0.672,1 1.5,1L3,1C3.275,1 3.498,0.778 3.5,0.503L3.5,0.497ZM5.5,3C6.328,3 7,3.672 7,4.5C7,5.328 6.328,6 5.5,6C4.672,6 4,5.328 4,4.5C4,3.672 4.672,3 5.5,3Z" fill-rule="evenodd" fill="#fff"/>
    </g>
</svg>
