<svg width="16" height="15" xmlns="http://www.w3.org/2000/svg" style="fill-rule:evenodd;clip-rule:evenodd"><path style="fill:url(#a)" d="M3 0h13v12H3z"/><path d="M16 0H3v12h13V0zm-1 1v10H4V1h11z" style="fill-opacity:.4"/><path style="fill:url(#b)" d="M5 2h9v8H5z"/><path style="fill:url(#c)" d="M0 3h13v12H0z"/><path d="M13 3H0v12h13V3zm-1 1v10H1V4h11z" style="fill-opacity:.4"/><path style="fill:url(#d)" d="M2 5h9v8H2z"/><path d="m3 13 3.998-5.571L10.548 13H3z" style="fill:#7c7c7c"/><path d="m3.96 11.663 3.038-4.234 2.445 3.837L6.5 10.214l-2.54 1.449z" style="fill:#f7f7f7"/><defs><radialGradient id="b" cx="0" cy="0" r="1" gradientUnits="userSpaceOnUse" gradientTransform="matrix(-5 -7 7 -5 10 9)"><stop offset="0" style="stop-color:#93b7d7"/><stop offset="1" style="stop-color:#6c9ac2"/></radialGradient><radialGradient id="d" cx="0" cy="0" r="1" gradientUnits="userSpaceOnUse" gradientTransform="matrix(-5 -7 7 -5 7 12)"><stop offset="0" style="stop-color:#93b7d7"/><stop offset="1" style="stop-color:#6c9ac2"/></radialGradient><linearGradient id="a" x1="0" y1="0" x2="1" y2="0" gradientUnits="userSpaceOnUse" gradientTransform="matrix(9 8 -8 9 5 2)"><stop offset="0" style="stop-color:#fefefe"/><stop offset="1" style="stop-color:#dfdfdf"/></linearGradient><linearGradient id="c" x1="0" y1="0" x2="1" y2="0" gradientUnits="userSpaceOnUse" gradientTransform="matrix(9 8 -8 9 2 5)"><stop offset="0" style="stop-color:#fefefe"/><stop offset="1" style="stop-color:#dfdfdf"/></linearGradient></defs></svg>