<?xml version="1.0" encoding="UTF-8" standalone="no"?>
<!DOCTYPE svg PUBLIC "-//W3C//DTD SVG 1.1//EN" "http://www.w3.org/Graphics/SVG/1.1/DTD/svg11.dtd">
<svg width="11px" height="33px" version="1.1" xmlns="http://www.w3.org/2000/svg" xmlns:xlink="http://www.w3.org/1999/xlink" xml:space="preserve" xmlns:serif="http://www.serif.com/" style="fill-rule:evenodd;clip-rule:evenodd;stroke-linejoin:round;stroke-miterlimit:2;">
    <rect id="profile_icons" x="0" y="0" width="11" height="33" style="fill:none;"/>
    <g id="profile_icons1" serif:id="profile_icons">
        <path d="M3,1C3.276,1 3.5,0.776 3.5,0.5L3.5,0.5C3.5,0.224 3.724,0 4,0L7,0C7.276,0 7.5,0.224 7.5,0.5C7.5,0.776 7.724,1 8,1L10,1C10.552,1 11,1.448 11,2L11,8C11,8.552 10.552,9 10,9L1,9C0.448,9 0,8.552 0,8L0,2C0,1.448 0.448,1 1,1L3,1ZM5.5,3C6.328,3 7,3.672 7,4.5C7,5.328 6.328,6 5.5,6C4.672,6 4,5.328 4,4.5C4,3.672 4.672,3 5.5,3Z"/>
        <path d="M10,12C10,11.448 9.552,11 9,11L2,11C1.448,11 1,11.448 1,12L1,21C1,21.552 1.448,22 2,22L9,22C9.552,22 10,21.552 10,21L10,12ZM3,20L2,20L2,21L3,21L3,20ZM9,20L8,20L8,21L9,21L9,20ZM3,18L2,18L2,19L3,19L3,18ZM9,18L8,18L8,19L9,19L9,18ZM3,16L2,16L2,17L3,17L3,16ZM9,16L8,16L8,17L9,17L9,16ZM3,14L2,14L2,15L3,15L3,14ZM9,14L8,14L8,15L9,15L9,14ZM3,12L2,12L2,13L3,13L3,12ZM9,12L8,12L8,13L9,13L9,12Z"/>
        <path d="M0,33C0,32.297 0.684,31.679 1.722,31.331C1.981,31.241 2.153,31.012 2.154,30.755C2.154,30.68 2.154,30.607 2.152,30.548C2.152,30.459 2.117,30.374 2.054,30.308C1.461,29.669 1.077,28.649 1.077,27.5C1.077,25.568 2.163,24 3.5,24L3.516,24C4.846,24.012 5.923,25.576 5.923,27.5C5.923,28.649 5.539,29.669 4.946,30.308C4.883,30.374 4.848,30.459 4.848,30.548C4.846,30.607 4.846,30.68 4.846,30.755C4.847,31.012 5.019,31.241 5.278,31.331C6.316,31.679 7,32.297 7,33L0,33Z"/>
        <path d="M5.5,33C5.5,32.409 6.128,31.898 7.043,31.667C7.313,31.593 7.5,31.348 7.5,31.068C7.5,31.045 7.5,31.023 7.492,31.001C7.492,30.848 7.425,30.704 7.307,30.606C6.822,30.162 6.5,29.384 6.5,28.5C6.5,27.12 7.284,26 8.25,26L8.261,26C9.222,26.009 10,27.126 10,28.5C10,29.384 9.678,30.162 9.193,30.606C9.075,30.704 9.008,30.848 9.008,31.001C9,31.023 9,31.045 9,31.068C9,31.348 9.187,31.593 9.457,31.667C10.372,31.898 11,32.409 11,33L5.5,33Z"/>
    </g>
</svg>
