<?xml version="1.0" encoding="UTF-8" standalone="no"?>
<!DOCTYPE svg PUBLIC "-//W3C//DTD SVG 1.1//EN" "http://www.w3.org/Graphics/SVG/1.1/DTD/svg11.dtd">
<svg width="9px" height="33px" version="1.1" xmlns="http://www.w3.org/2000/svg" xmlns:xlink="http://www.w3.org/1999/xlink" xml:space="preserve" xmlns:serif="http://www.serif.com/" style="fill-rule:evenodd;clip-rule:evenodd;stroke-linejoin:round;stroke-miterlimit:2;" shape-rendering="crispEdges">
    <filter id="s">
    <feComposite in2="SourceAlpha" operator="out"/>
    <feOffset dx="0" dy="1"/>
    <feComposite in2="SourceAlpha" operator="in"/>
    <feBlend in2="SourceGraphic" mode="overlay"/>
</filter>
    <g filter="url(#s)">
        <path d="M6,7L6,9L0,9L0,2L6,2L6,0L6.3,0L9,3L6.3,6L6,6L6,4L2,4L2,7L6,7Z"/>
        <path d="M2,15.3L0,17.5L0,13L6,13L6,11L6.3,11L9,14L6.3,17L6,17L6,15L2,15L2,15.3Z"/>
        <path d="M7,17.7L9,15.5L9,20L3,20L3,22L2.7,22L0,19L2.7,16L3,16L3,18L7,18L7,17.7Z"/>
        <path d="M2,23H2.5L7,27.5L2.5,32H2Z"/>
    </g>
</svg>
