<?xml version="1.0" encoding="UTF-8" standalone="no"?>
<!DOCTYPE svg PUBLIC "-//W3C//DTD SVG 1.1//EN" "http://www.w3.org/Graphics/SVG/1.1/DTD/svg11.dtd">
<svg width="11px" height="11px" version="1.1" xmlns="http://www.w3.org/2000/svg" xmlns:xlink="http://www.w3.org/1999/xlink" xml:space="preserve" xmlns:serif="http://www.serif.com/" style="clip-rule:evenodd;stroke-linejoin:round;stroke-miterlimit:2;">
    <path d="M3.554,6.032C3.202,5.436 3,4.741 3,4C3,1.792 4.792,0 7,0C9.208,0 11,1.792 11,4C11,6.208 9.208,8 7,8C6.259,8 5.564,7.798 4.968,7.446L1.5,10.914L0.086,9.5L3.554,6.032ZM7,2C8.104,2 9,2.896 9,4C9,5.104 8.104,6 7,6C5.896,6 5,5.104 5,4C5,2.896 5.896,2 7,2Z" fill-rule="evenodd"/>
</svg>
