<svg width="15" height="14" xmlns="http://www.w3.org/2000/svg"><path d="m7.496 3.462 3.016-.842L14.329.389l.053 10.731-1.984-.837-4.634-1.734-.268-5.087z" style="fill:url(#a)"/><path d="M1 3.267v5.472a1.982 1.982 0 0 1-1-1.722v-2.02a1.997 1.997 0 0 1 1-1.73z" style="fill:#557da2"/><path style="fill:url(#b)" d="M7 3.5h1v5H7z"/><path style="fill:url(#c)" d="M6 3.5h1v5H6z"/><path style="fill:#fff;fill-opacity:.44" d="M13 .848h1v10.144h-1z"/><path d="M1 4v-.733A2 2 0 0 1 1.997 3H7s3.009.022 7-3v1.238C10.04 4.022 7.089 4.001 6.995 4H1z" style="fill:url(#d)"/><path style="fill:#bdbdbd" d="M2.614 8.759h2.763v1.28H2.614z"/><path style="fill:url(#e)" d="M3 10h2.47v3H3z"/><path d="M6 10v4H3c0-2.4-.64-2.88-.896-4h1.035c.081.268.187.497.289.754.221.551.445 1.187.533 2.246H5v-3h1z" style="fill:#557da2"/><path d="M6 9v1H5V9H3c0 .417.056.728.139 1H2.104C2.04 9.72 2 9.4 2 9h-.017c-.348 0-.686-.091-.983-.261V8h6.002S9.95 7.961 14 10.769V12C9.976 9.005 7 9 7 9H6z" style="fill:#6c6c6c"/><path style="fill:url(#f)" d="M14 0h1v12h-1z"/><path style="fill:url(#g)" d="M1 4h5v4H1z"/><defs><linearGradient id="b" x1="0" y1="0" x2="1" y2="0" gradientUnits="userSpaceOnUse" gradientTransform="matrix(0 2 -10 0 7 4)"><stop offset="0" style="stop-color:#d9edff"/><stop offset="1" style="stop-color:#5e809e"/></linearGradient><linearGradient id="c" x1="0" y1="0" x2="1" y2="0" gradientUnits="userSpaceOnUse" gradientTransform="matrix(0 2 -10 0 6 5)"><stop offset="0" style="stop-color:#f6f6f6"/><stop offset="1" style="stop-color:#a6a6a6"/></linearGradient><linearGradient id="d" x1="0" y1="0" x2="1" y2="0" gradientUnits="userSpaceOnUse" gradientTransform="matrix(0 2 -2 0 14 1)"><stop offset="0" style="stop-color:#adafb1"/><stop offset="1" style="stop-color:#949494"/></linearGradient><linearGradient id="e" x1="0" y1="0" x2="1" y2="0" gradientUnits="userSpaceOnUse" gradientTransform="matrix(0 3 -2.46995 0 3 10)"><stop offset="0" style="stop-color:#5e809e"/><stop offset="1" style="stop-color:#91b3d1"/></linearGradient><linearGradient id="f" x1="0" y1="0" x2="1" y2="0" gradientUnits="userSpaceOnUse" gradientTransform="matrix(0 10 -120 0 14 1)"><stop offset="0" style="stop-color:#708fab"/><stop offset=".3" style="stop-color:#9fbfdc"/><stop offset=".76" style="stop-color:#5e809e"/><stop offset="1" style="stop-color:#5f7b93"/></linearGradient><linearGradient id="g" x1="0" y1="0" x2="1" y2="0" gradientUnits="userSpaceOnUse" gradientTransform="matrix(0 2 -62.5 0 1 5)"><stop offset="0" style="stop-color:#e7e7e7"/><stop offset="1" style="stop-color:#838383"/></linearGradient><radialGradient id="a" cx="0" cy="0" r="1" gradientUnits="userSpaceOnUse" gradientTransform="rotate(87.868 4.264 8.536) scale(5.50234)"><stop offset="0" style="stop-color:#e7e7e7"/><stop offset="1" style="stop-color:#838383"/></radialGradient></defs></svg>