<?xml version="1.0" encoding="UTF-8" standalone="no"?>
<!DOCTYPE svg PUBLIC "-//W3C//DTD SVG 1.1//EN" "http://www.w3.org/Graphics/SVG/1.1/DTD/svg11.dtd">
<svg width="16px" height="16px" version="1.1" xmlns="http://www.w3.org/2000/svg" xmlns:xlink="http://www.w3.org/1999/xlink" xml:space="preserve" xmlns:serif="http://www.serif.com/" style="fill-rule:evenodd;clip-rule:evenodd;stroke-linejoin:round;stroke-miterlimit:2;">
    <path d="M7.496,4.462L10.512,3.62L14.329,1.389L14.382,12.12L12.398,11.283L7.764,9.549L7.496,4.462Z" style="fill:url(#_Radial1);"/>
    <path d="M1,4.267L1,9.739C0.848,9.653 0.707,9.545 0.581,9.419C0.209,9.047 -0,8.543 0,8.017C0,7.368 0,6.647 0,5.997C-0,5.468 0.21,4.96 0.585,4.585C0.71,4.46 0.85,4.353 1,4.267Z" style="fill:#557da2;"/>
    <rect x="7" y="4.5" width="1" height="5" style="fill:url(#_Linear2);"/>
    <rect x="6" y="4.5" width="1" height="5" style="fill:url(#_Linear3);"/>
    <rect x="13" y="1.848" width="1" height="10.144" style="fill:#fff;fill-opacity:0.44;"/>
    <path d="M1,5L1,4.267C1.301,4.094 1.644,4 1.997,4C4.066,4 7,4 7,4C7,4 10.009,4.022 14,1L14,2.238C10.04,5.022 7.089,5.001 6.995,5L1,5Z" style="fill:url(#_Linear4);"/>
    <rect x="2.614" y="9.759" width="2.763" height="1.28" style="fill:#bdbdbd;"/>
    <rect x="3" y="11" width="2.47" height="3" style="fill:url(#_Linear5);"/>
    <path d="M6,11L6,15L3,15C3,12.6 2.36,12.12 2.104,11L3.139,11C3.22,11.268 3.326,11.497 3.428,11.754C3.649,12.305 3.873,12.941 3.961,14L5,14L5,11L6,11Z" style="fill:#557da2;"/>
    <path d="M6,10L6,11L5,11L5,10L3,10C3,10.417 3.056,10.728 3.139,11L2.104,11C2.04,10.72 2,10.4 2,10L1.983,10C1.635,10 1.297,9.909 1,9.739L1,9L7.002,9C7.002,9 9.95,8.961 14,11.769L14,13C9.976,10.005 7,10 7,10L6,10Z" style="fill:#6c6c6c;"/>
    <rect x="14" y="1" width="1" height="12" style="fill:url(#_Linear6);"/>
    <rect x="1" y="5" width="5" height="4" style="fill:url(#_Linear7);"/>
    <defs>
        <radialGradient id="_Radial1" cx="0" cy="0" r="1" gradientUnits="userSpaceOnUse" gradientTransform="matrix(0.204729,5.49853,-5.49853,0.204729,12.6346,4.95731)"><stop offset="0" style="stop-color:#e7e7e7;stop-opacity:1"/><stop offset="1" style="stop-color:#838383;stop-opacity:1"/></radialGradient>
        <linearGradient id="_Linear2" x1="0" y1="0" x2="1" y2="0" gradientUnits="userSpaceOnUse" gradientTransform="matrix(1.22465e-16,2,-10,6.12323e-16,7,5)"><stop offset="0" style="stop-color:#d9edff;stop-opacity:1"/><stop offset="1" style="stop-color:#5e809e;stop-opacity:1"/></linearGradient>
        <linearGradient id="_Linear3" x1="0" y1="0" x2="1" y2="0" gradientUnits="userSpaceOnUse" gradientTransform="matrix(1.22465e-16,2,-10,6.12323e-16,6,6)"><stop offset="0" style="stop-color:#f6f6f6;stop-opacity:1"/><stop offset="1" style="stop-color:#a6a6a6;stop-opacity:1"/></linearGradient>
        <linearGradient id="_Linear4" x1="0" y1="0" x2="1" y2="0" gradientUnits="userSpaceOnUse" gradientTransform="matrix(1.22465e-16,2,-2,1.22465e-16,14,2)"><stop offset="0" style="stop-color:#adafb1;stop-opacity:1"/><stop offset="1" style="stop-color:#949494;stop-opacity:1"/></linearGradient>
        <linearGradient id="_Linear5" x1="0" y1="0" x2="1" y2="0" gradientUnits="userSpaceOnUse" gradientTransform="matrix(1.51241e-16,3,-2.46995,1.83697e-16,3,11)"><stop offset="0" style="stop-color:#5e809e;stop-opacity:1"/><stop offset="1" style="stop-color:#91b3d1;stop-opacity:1"/></linearGradient>
        <linearGradient id="_Linear6" x1="0" y1="0" x2="1" y2="0" gradientUnits="userSpaceOnUse" gradientTransform="matrix(6.12323e-16,10,-120,7.34788e-15,14,2)"><stop offset="0" style="stop-color:#708fab;stop-opacity:1"/><stop offset="0.3" style="stop-color:#9fbfdc;stop-opacity:1"/><stop offset="0.76" style="stop-color:#5e809e;stop-opacity:1"/><stop offset="1" style="stop-color:#5f7b93;stop-opacity:1"/></linearGradient>
        <linearGradient id="_Linear7" x1="0" y1="0" x2="1" y2="0" gradientUnits="userSpaceOnUse" gradientTransform="matrix(1.22465e-16,2,-62.5,3.82702e-15,1,6)"><stop offset="0" style="stop-color:#e7e7e7;stop-opacity:1"/><stop offset="1" style="stop-color:#838383;stop-opacity:1"/></linearGradient>
    </defs>
</svg>
