<svg width="15" height="15" xmlns="http://www.w3.org/2000/svg" style="fill-rule:evenodd"><path style="fill:url(#a)" d="M1 1h13v13H1z"/><path d="M14 1H1v13h13V1zm-1 1v11H2V2h11z" style="fill:url(#b)"/><path d="M15 15V0H0v15h15zM14 1H1v13h13V1z" style="fill:url(#c)"/><path d="M5 5h2v1h1V5h2v2H9v1h1v2H8V9H7v1H5V8h1V7H5V5zm2-2h1v1h3v3h1v1h-1v3H8v1H7v-1H4V8H3V7h1V4h3V3z" style="fill:#fff"/><defs><linearGradient id="b" x1="0" y1="0" x2="1" y2="0" gradientUnits="userSpaceOnUse" gradientTransform="matrix(5 13 -13 5 5 1)"><stop offset="0" style="stop-color:#fdfdfe;stop-opacity:1"/><stop offset="1" style="stop-color:#c4ccd3;stop-opacity:1"/></linearGradient><linearGradient id="c" x1="0" y1="0" x2="1" y2="0" gradientUnits="userSpaceOnUse" gradientTransform="matrix(7 15 -15 7 3 0)"><stop offset="0" style="stop-color:#979ea4;stop-opacity:1"/><stop offset="1" style="stop-color:#6a87a0;stop-opacity:1"/></linearGradient><radialGradient id="a" cx="0" cy="0" r="1" gradientUnits="userSpaceOnUse" gradientTransform="matrix(10 6 -6 10 4 1)"><stop offset="0" style="stop-color:#a4bdd5;stop-opacity:1"/><stop offset="1" style="stop-color:#6a87a0;stop-opacity:1"/></radialGradient></defs></svg>