<?xml version="1.0" encoding="UTF-8" standalone="no"?>
<!DOCTYPE svg PUBLIC "-//W3C//DTD SVG 1.1//EN" "http://www.w3.org/Graphics/SVG/1.1/DTD/svg11.dtd">
<svg width="16px" height="16px" version="1.1" xmlns="http://www.w3.org/2000/svg" xmlns:xlink="http://www.w3.org/1999/xlink" xml:space="preserve" xmlns:serif="http://www.serif.com/" style="fill-rule:evenodd;clip-rule:evenodd;stroke-linejoin:round;stroke-miterlimit:2;">
    <path d="M0,2L16,2L16,12L6,12L2,16L2,12L0,12L0,2Z" style="fill:url(#_Radial1);"/>
    <path d="M0,2L16,2L16,12L6,12L2,16L2,12L0,12L0,2ZM1,3L15,3C15,3 15,11 15,11C15,11 5.586,11 5.586,11L3,13.586C3,13.586 3,11 3,11L1,11L1,3Z" style="fill-opacity:0.4;"/>
    <rect x="4" y="5" width="8" height="1" style="fill-opacity:0.4;"/>
    <rect x="4" y="7" width="8" height="1" style="fill-opacity:0.4;"/>
    <defs>
        <radialGradient id="_Radial1" cx="0" cy="0" r="1" gradientUnits="userSpaceOnUse" gradientTransform="matrix(10,0,0,6,6,4)"><stop offset="0" style="stop-color:#fff;stop-opacity:1"/><stop offset="1" style="stop-color:#cfcfcf;stop-opacity:1"/></radialGradient>
    </defs>
</svg>
