<svg width="12" height="15" xmlns="http://www.w3.org/2000/svg" style="fill-rule:evenodd"><path style="fill:url(#a)" d="M0 0h12v15H0z"/><path d="M9 0H3v2h6V0zm0 3H3v4h6V3zm0 5H3v4h6V8zm0 5H3v2h6v-2zM2 0H1v1h1V0zm0 2H1v1h1V2zm0 2H1v1h1V4zm0 2H1v1h1V6zm0 2H1v1h1V8zm0 2H1v1h1v-1zm0 2H1v1h1v-1zm0 2H1v1h1v-1zm9-14h-1v1h1V0zm0 2h-1v1h1V2zm0 2h-1v1h1V4zm0 2h-1v1h1V6zm0 2h-1v1h1V8zm0 2h-1v1h1v-1zm0 2h-1v1h1v-1zm0 2h-1v1h1v-1zm1-14H0v15h12V0z" style="fill:url(#b)"/><defs><linearGradient id="a" x1="0" y1="0" x2="1" y2="0" gradientUnits="userSpaceOnUse" gradientTransform="matrix(0 15 -15 0 6 0)"><stop offset="0" style="stop-color:#fff"/><stop offset="1" style="stop-color:#d5d5d5"/></linearGradient><linearGradient id="b" x1="0" y1="0" x2="1" y2="0" gradientUnits="userSpaceOnUse" gradientTransform="matrix(0 15 -15 0 5 0)"><stop offset="0" style="stop-color:#a6a6a6"/><stop offset="1" style="stop-color:#737374"/></linearGradient></defs></svg>