<?xml version="1.0" encoding="UTF-8" standalone="no"?>
<!DOCTYPE svg PUBLIC "-//W3C//DTD SVG 1.1//EN" "http://www.w3.org/Graphics/SVG/1.1/DTD/svg11.dtd">
<svg width="16px" height="16px" version="1.1" xmlns="http://www.w3.org/2000/svg" xmlns:xlink="http://www.w3.org/1999/xlink" xml:space="preserve" xmlns:serif="http://www.serif.com/" style="fill-rule:evenodd;clip-rule:evenodd;stroke-linejoin:round;stroke-miterlimit:2;">
    <rect x="2" y="0" width="12" height="15" style="fill:url(#_Linear1);"/>
    <path d="M11,0L5,0L5,2L11,2L11,0ZM11,3L5,3L5,7L11,7L11,3ZM11,8L5,8L5,12L11,12L11,8ZM11,13L5,13L5,15L11,15L11,13ZM4,0L3,0L3,1L4,1L4,0ZM4,2L3,2L3,3L4,3L4,2ZM4,4L3,4L3,5L4,5L4,4ZM4,6L3,6L3,7L4,7L4,6ZM4,8L3,8L3,9L4,9L4,8ZM4,10L3,10L3,11L4,11L4,10ZM4,12L3,12L3,13L4,13L4,12ZM4,14L3,14L3,15L4,15L4,14ZM13,0L12,0L12,1L13,1L13,0ZM13,2L12,2L12,3L13,3L13,2ZM13,4L12,4L12,5L13,5L13,4ZM13,6L12,6L12,7L13,7L13,6ZM13,8L12,8L12,9L13,9L13,8ZM13,10L12,10L12,11L13,11L13,10ZM13,12L12,12L12,13L13,13L13,12ZM13,14L12,14L12,15L13,15L13,14ZM14,0L2,0L2,15L14,15L14,0Z" style="fill:url(#_Linear2);"/>
    <defs>
        <linearGradient id="_Linear1" x1="0" y1="0" x2="1" y2="0" gradientUnits="userSpaceOnUse" gradientTransform="matrix(9.18485e-16,15,-15,9.18485e-16,8,0)"><stop offset="0" style="stop-color:#fff;stop-opacity:1"/><stop offset="1" style="stop-color:#d5d5d5;stop-opacity:1"/></linearGradient>
        <linearGradient id="_Linear2" x1="0" y1="0" x2="1" y2="0" gradientUnits="userSpaceOnUse" gradientTransform="matrix(9.18485e-16,15,-15,9.18485e-16,7,0)"><stop offset="0" style="stop-color:#a6a6a6;stop-opacity:1"/><stop offset="1" style="stop-color:#737374;stop-opacity:1"/></linearGradient>
    </defs>
</svg>
