<svg xmlns="http://www.w3.org/2000/svg" fill-rule="evenodd"><defs><g id="a" transform="scale(3)"><path fill="#b5b779" d="M13.062 7c2.992-.067 2.961-2.975 5.938-3 1.217-.004 2.88 0 2.994 0s1.777-.004 2.994 0c2.977.025 2.946 2.933 5.938 3H32c1.656 0 3 1.344 3 3v13c0 1.656-1.344 3-3 3H12c-1.656 0-3-1.344-3-3V10c0-1.656 1.344-3 3-3zM22 10c3.311 0 6 2.689 6 6s-2.689 6-6 6-6-2.689-6-6 2.689-6 6-6m0 2c2.208 0 4 1.792 4 4s-1.792 4-4 4-4-1.792-4-4 1.792-4 4-4"/><path fill="#b5b779" fill-rule="nonzero" d="M27.725 28.999a.95.95 0 0 1-.5-.137 1 1 0 0 1-.35-.363 1.1 1.1 0 0 1-.137-.487.9.9 0 0 1 .137-.513l7.25-12a1 1 0 0 1 .388-.375q.237-.125.487-.125t.488.125a1 1 0 0 1 .387.375l7.25 12q.15.25.138.513a1.1 1.1 0 0 1-.138.487 1 1 0 0 1-.35.363.95.95 0 0 1-.5.137zm7.275-2a.97.97 0 0 0 .713-.287.97.97 0 0 0 .287-.713.97.97 0 0 0-.287-.712.97.97 0 0 0-.713-.288.97.97 0 0 0-.712.288.97.97 0 0 0-.288.712q0 .425.288.713a.97.97 0 0 0 .712.287m0-3a.97.97 0 0 0 .713-.287.97.97 0 0 0 .287-.713v-3a.97.97 0 0 0-.287-.712.97.97 0 0 0-.713-.288.97.97 0 0 0-.712.288.97.97 0 0 0-.288.712v3q0 .425.288.713a.97.97 0 0 0 .712.287"/><path fill="#fff" d="M27.725 30.999h14.55c.566 0 1.08-.148 1.543-.431a2.94 2.94 0 0 0 1.055-1.098q.352-.629.387-1.363a2.86 2.86 0 0 0-.42-1.637l-7.253-12.005a2.94 2.94 0 0 0-1.168-1.111 3.01 3.01 0 0 0-2.838 0c-.475.25-.871.616-1.171 1.116l-7.247 11.995-.003.005a2.86 2.86 0 0 0-.42 1.637q.035.734.387 1.363.377.682 1.055 1.098c.463.283.977.431 1.543.431m0-2a.95.95 0 0 1-.5-.137 1 1 0 0 1-.35-.363 1.1 1.1 0 0 1-.137-.487.9.9 0 0 1 .137-.513l7.25-12a1 1 0 0 1 .387-.375q.238-.125.488-.125t.488.125a1 1 0 0 1 .387.375l7.25 12q.15.25.137.513a1.1 1.1 0 0 1-.137.487 1 1 0 0 1-.35.363.95.95 0 0 1-.5.137zm6.275-3 .004.104a.96.96 0 0 0 .284.609.97.97 0 0 0 .712.287l-.103-.005a.97.97 0 0 1-.599-.293.96.96 0 0 1-.298-.702m1.996.104.004-.104a.96.96 0 0 1-.298.702.96.96 0 0 1-.702.298l.104-.004a.95.95 0 0 0 .608-.283.96.96 0 0 0 .284-.609m-1.992-.187.009-.072q.457.155.987.155t.987-.155l.009.072a.95.95 0 0 0-.284-.629.97.97 0 0 0-.712-.288.97.97 0 0 0-.712.288.95.95 0 0 0-.284.629M35 23.999a.97.97 0 0 0 .712-.287.97.97 0 0 0 .288-.713v-3a.97.97 0 0 0-.288-.712.97.97 0 0 0-.712-.288.97.97 0 0 0-.712.288.97.97 0 0 0-.288.712v3q0 .425.288.713a.97.97 0 0 0 .712.287"/></g></defs><rect fill="#fff" x="0" y="0" width="100%" height="100%"/><use x="50%" y="50%" href="#a" transform="translate(-66 -45)"/></svg>