<svg xmlns="http://www.w3.org/2000/svg" fill-rule="evenodd"><defs><g id="a"><path d="M6.031 3.499c1.496-.033 1.48-1.488 2.969-1.5.608-.002 1.44 0 1.497 0s.888-.002 1.497 0c1.488.012 1.472 1.467 2.968 1.5h.538c.827 0 1.5.672 1.5 1.5v6.5c0 .828-.673 1.5-1.5 1.5h-10a1.5 1.5 0 0 1-1.5-1.5v-6.5a1.5 1.5 0 0 1 1.5-1.5zm4.469 1.5c1.655 0 3 1.344 3 3s-1.345 3-3 3a3.001 3.001 0 0 1 0-6m0 1A2 2 0 1 1 10.499 10 2 2 0 0 1 10.5 6" style="fill:#b5b779"/><path d="M13.362 14.498a.482.482 0 0 1-.425-.25.6.6 0 0 1-.069-.244.45.45 0 0 1 .069-.256l3.625-6a.513.513 0 0 1 .438-.25.51.51 0 0 1 .437.25l3.625 6q.075.126.069.256a.56.56 0 0 1-.069.244.48.48 0 0 1-.425.25zm3.638-1q.212 0 .356-.144a.48.48 0 0 0 .144-.356.48.48 0 0 0-.144-.356.48.48 0 0 0-.356-.144.49.49 0 0 0-.357.144.48.48 0 0 0-.143.356.48.48 0 0 0 .143.356.49.49 0 0 0 .357.144m0-1.5a.487.487 0 0 0 .5-.5v-1.5a.48.48 0 0 0-.144-.356.48.48 0 0 0-.356-.144.49.49 0 0 0-.357.144.48.48 0 0 0-.143.356v1.5q0 .213.143.357a.49.49 0 0 0 .357.143" style="fill:#b5b779;fill-rule:nonzero"/><path d="M13.362 15.498h7.275q.425-.002.771-.215.34-.21.528-.549.176-.315.193-.682a1.4 1.4 0 0 0-.21-.818l-3.626-6.003a1.503 1.503 0 0 0-2.588.003l-3.624 5.997-.001.003c-.16.265-.224.539-.21.818a1.52 1.52 0 0 0 .721 1.231q.346.213.771.215m0-1a.482.482 0 0 1-.425-.25.6.6 0 0 1-.069-.244.45.45 0 0 1 .069-.256l3.625-6a.513.513 0 0 1 .438-.25.51.51 0 0 1 .437.25l3.625 6q.075.126.069.256a.56.56 0 0 1-.069.244.48.48 0 0 1-.425.25zm3.638-1h-.001zm-.5-.493a.48.48 0 0 0 .143.349.48.48 0 0 0 .351.144.48.48 0 0 1-.345-.149.48.48 0 0 1-.149-.344m.999 0a.48.48 0 0 1-.149.344.48.48 0 0 1-.345.149.48.48 0 0 0 .351-.144.48.48 0 0 0 .143-.349m-.998-.049.005-.035q.228.077.494.077.264 0 .493-.077l.005.035a.48.48 0 0 0-.142-.314.48.48 0 0 0-.356-.144.49.49 0 0 0-.357.144.48.48 0 0 0-.142.314m.499-.958a.487.487 0 0 0 .5-.5v-1.5a.48.48 0 0 0-.144-.356.48.48 0 0 0-.356-.144.49.49 0 0 0-.357.144.48.48 0 0 0-.143.356v1.5q0 .213.143.357a.49.49 0 0 0 .357.143" style="fill:#fff"/></g></defs><rect fill="#fff" x="0" y="0" width="100%" height="100%"/><use x="50%" y="50%" href="#a" transform="translate(-11 -8)"/></svg>