<svg xmlns="http://www.w3.org/2000/svg" xmlns:xlink="http://www.w3.org/1999/xlink" width="27" height="28" viewBox="0 0 27 28">
  <defs>
    <linearGradient id="a" x1="13.5" y1="24.75" x2="13.5" y2="2.5" gradientUnits="userSpaceOnUse">
      <stop offset="0" stop-color="#eee"/>
      <stop offset="1" stop-color="#fff"/>
    </linearGradient>
    <filter id="s"><feDropShadow dx="0" dy="1" stdDeviation="1" flood-opacity="0.3"/></filter>
  </defs>
  <g>
    <path d="M9.28,20.5H4A1.5,1.5,0,0,1,2.5,19V4A1.5,1.5,0,0,1,4,2.5H23A1.5,1.5,0,0,1,24.5,4V19A1.5,1.5,0,0,1,23,20.5H17.79l-4.26,4.25Zm4.22-5a2,2,0,1,0,2,2A2,2,0,0,0,13.5,15.5Zm0-11a2,2,0,0,0-2,2c0,.08.4,8,2,8s2-7.92,2-8A2,2,0,0,0,13.5,4.5Z" fill="url(#a)" filter="url(#s)"/>
    <path d="M23,3a1,1,0,0,1,1,1V19a1,1,0,0,1-1,1H17.59l-.29.29L13.54,24,9.78,20.29,9.49,20H4a1,1,0,0,1-1-1V4A1,1,0,0,1,4,3H23M13.5,15A2.5,2.5,0,1,0,16,17.5,2.5,2.5,0,0,0,13.5,15c1.07,0,1.55-1,2-4.29A42,42,0,0,0,16,6.5a2.5,2.5,0,0,0-5,0,42,42,0,0,0,.45,4.21c.5,3.29,1,4.29,2,4.29M23,2H4A2,2,0,0,0,2,4V19a2,2,0,0,0,2,2H9.08l4.46,4.46L18,21h5a2,2,0,0,0,2-2V4a2,2,0,0,0-2-2ZM13.5,14C12.67,14,12,7.33,12,6.5a1.5,1.5,0,0,1,3,0c0,.83-.67,7.5-1.5,7.5Zm0,5A1.5,1.5,0,1,1,15,17.5,1.5,1.5,0,0,1,13.5,19Z" fill="#fff"/>
  </g>
</svg>
