<svg xmlns="http://www.w3.org/2000/svg" xmlns:xlink="http://www.w3.org/1999/xlink" width="27" height="28" viewBox="0 0 27 28">
  <defs>
    <linearGradient id="g" x1="0" y1="24.75" x2="0" y2="2.5" gradientUnits="userSpaceOnUse">
        <stop offset="0" stop-color="#eee"/>
        <stop offset="1" stop-color="#fff"/>
    </linearGradient>
    <filter id="s"><feDropShadow dx="0" dy="1" stdDeviation="1" flood-opacity="0.3"/></filter>
  </defs>
  <path d="M9.28,20.5H4A1.5,1.5,0,0,1,2.5,19V4A1.5,1.5,0,0,1,4,2.5H23A1.5,1.5,0,0,1,24.5,4V19A1.5,1.5,0,0,1,23,20.5H17.79l-4.26,4.25Zm4.22-5a2,2,0,1,0,2,2A2,2,0,0,0,13.5,15.5Zm0-11a2,2,0,0,0-2,2c0,.08.4,8,2,8s2-7.92,2-8A2,2,0,0,0,13.5,4.5Z" stroke="#fff" stroke-width="1" fill="url(#g)" filter="url(#s)"/>
</svg>
