<svg xmlns="http://www.w3.org/2000/svg" xml:space="preserve" width="300" height="180" style="fill-rule:evenodd;clip-rule:evenodd;stroke-linejoin:round;stroke-miterlimit:2"><path d="M75.024 39.692a55 55 0 0 1 3.554-.323q1.831-.107 3.34-1.831 1.507-1.723 2.478-5.602.969-3.877.969-11.419 0-2.585-2.154-2.585h-1.939l-35.334 3.447q-4.525.432-7.11.862t-3.986 1.185q-1.4.754-1.939 2.155t-1.185 3.77q-4.955 20.468-8.402 31.671-3.448 11.204-3.448 15.297 0 2.586 1.401 3.447 1.4.862 4.201 1.185t7.11.539q4.31.215 10.126 1.508 15.728 3.231 23.376 10.988t7.649 21.114q0 14.004-7.649 24.992-7.649 10.987-22.299 17.451-5.817 2.586-10.341 3.555-4.525.97-7.649 1.509t-4.632 1.185q-1.508.645-1.508 2.585 0 3.231 3.663 3.232 1.939 0 6.355-.862t10.126-2.693 12.066-4.525a74 74 0 0 0 12.173-6.571q13.573-8.833 21.006-21.222t7.433-25.746q0-37.488-39.212-45.675-5.17-1.077-9.372-1.401a216 216 0 0 1-7.11-.646q-2.908-.324-4.417-1.077-1.508-.755-1.508-2.909 0-5.601 1.293-8.402t3.663-4.094 5.817-1.4q3.447-.108 7.971-.539zM150.431 17.932q-8.403 0-15.836 4.74t-13.142 13.896q-5.71 9.157-9.049 22.515t-3.339 30.594q0 17.235 3.339 30.701t8.941 22.623q5.602 9.156 13.25 13.896 7.649 4.74 16.051 4.74 8.403 0 15.836-4.74t13.142-13.896q5.71-9.157 9.049-22.515 3.34-13.358 3.34-30.809 0-17.236-3.34-30.594t-8.941-22.515-13.25-13.896q-7.648-4.74-16.051-4.74m0 6.033q11.634 0 16.59 16.374t4.955 49.553q0 33.18-4.955 49.446-4.956 16.266-16.375 16.266-11.418 0-16.482-16.374-5.063-16.374-5.063-49.553 0-32.964 5.063-49.338 5.064-16.374 16.267-16.374M244.582 17.932q-8.402 0-15.835 4.74t-13.143 13.896q-5.709 9.157-9.048 22.515t-3.34 30.594q0 17.235 3.34 30.701t8.941 22.623q5.601 9.156 13.25 13.896 7.648 4.74 16.051 4.74t15.835-4.74q7.434-4.74 13.143-13.896t9.049-22.515q3.339-13.358 3.339-30.809 0-17.236-3.339-30.594t-8.941-22.515-13.251-13.896q-7.648-4.74-16.051-4.74m0 6.033q11.635 0 16.59 16.374 4.956 16.374 4.955 49.553 0 33.18-4.955 49.446-4.956 16.266-16.374 16.266-11.42 0-16.482-16.374-5.063-16.374-5.063-49.553 0-32.964 5.063-49.338t16.266-16.374" style="fill-rule:nonzero"/></svg>