<svg xmlns="http://www.w3.org/2000/svg" xml:space="preserve" width="300" height="180" style="fill-rule:evenodd;clip-rule:evenodd;stroke-linejoin:round;stroke-miterlimit:2"><path d="M85.581 4.359q-1.724 0-2.478.646t-1.831 1.939L21.377 95.063q-3.233 4.956-5.171 8.295-1.94 3.339-1.939 5.709 0 3.447 1.292 4.202 1.293.753 4.094.754h37.919q3.232 0 3.77.861.54.862.539 4.525v16.805q0 4.956-.754 7.972t-3.986 4.093q-3.447 1.077-5.925 1.508t-3.986.862-2.262 1.185-.754 2.693q0 1.94.431 2.478t2.155.538 7.971-.861q6.249-.862 17.667-.862 6.248 0 10.773.646 4.524.647 7.109.647 1.94 0 2.801-.647.862-.646.862-2.585t-.754-2.586q-.754-.646-2.047-.861a30 30 0 0 0-3.016-.324q-1.724-.106-3.663-1.185-2.37-1.292-3.016-3.554-.646-2.263-.646-6.572v-20.683q0-2.154.646-3.124.647-.969 2.585-.969H95.06q2.37 0 2.37-2.801v-3.447q0-3.017-2.585-3.017H84.719q-2.586 0-3.232-.969-.646-.97-.646-3.34V55.851q0-3.447-2.155-3.447-.215 0-4.093 1.185t-8.187 3.986q-3.233 2.154-3.879 3.555-.645 1.4-.646 3.555v35.118q0 3.016-.539 3.986-.539.969-3.339.969H27.625q-1.724 0-2.801-.215-1.077-.216-1.078-1.724 0-1.077 2.37-4.74a962 962 0 0 1 6.679-10.126l11.419-16.805Q54.986 55.42 63.497 43.786q8.51-11.635 14.543-19.498t9.156-12.281q3.124-4.416 3.124-5.709 0-.646-.538-1.293t-1.185-.646zM150.431 17.932q-8.403 0-15.836 4.74t-13.142 13.896q-5.71 9.157-9.049 22.515t-3.339 30.594q0 17.235 3.339 30.701t8.941 22.623q5.602 9.156 13.25 13.896 7.649 4.74 16.051 4.74 8.403 0 15.836-4.74t13.142-13.896q5.71-9.157 9.049-22.515 3.34-13.358 3.34-30.809 0-17.236-3.34-30.594t-8.941-22.515-13.25-13.896q-7.648-4.74-16.051-4.74m0 6.033q11.634 0 16.59 16.374t4.955 49.553q0 33.18-4.955 49.446-4.956 16.266-16.375 16.266-11.418 0-16.482-16.374-5.063-16.374-5.063-49.553 0-32.964 5.063-49.338 5.064-16.374 16.267-16.374M273.884 4.359q-1.724 0-2.478.646t-1.831 1.939L209.68 95.063q-3.233 4.956-5.171 8.295-1.94 3.339-1.939 5.709 0 3.447 1.292 4.202 1.293.753 4.094.754h37.919q3.232 0 3.77.861.54.862.539 4.525v16.805q0 4.956-.754 7.972t-3.986 4.093q-3.447 1.077-5.925 1.508t-3.985.862q-1.509.43-2.263 1.185-.754.754-.754 2.693t.431 2.478q.431.538 2.155.538t7.971-.861q6.249-.862 17.667-.862 6.248 0 10.773.646 4.524.647 7.109.647 1.94 0 2.801-.647.862-.646.862-2.585t-.754-2.586q-.754-.646-2.047-.861a30 30 0 0 0-3.016-.324q-1.724-.106-3.663-1.185-2.37-1.292-3.016-3.554-.646-2.263-.646-6.572v-20.683q0-2.154.646-3.124.647-.969 2.585-.969h10.988q2.37 0 2.37-2.801v-3.447q0-3.017-2.585-3.017h-10.126q-2.586 0-3.232-.969-.646-.97-.646-3.34V55.851q0-3.447-2.155-3.447-.215 0-4.093 1.185t-8.187 3.986q-3.233 2.154-3.879 3.555-.645 1.4-.646 3.555v35.118q0 3.016-.539 3.986-.539.969-3.339.969h-30.378q-1.724 0-2.801-.215-1.077-.216-1.077-1.724 0-1.077 2.369-4.74a962 962 0 0 1 6.679-10.126l11.419-16.805Q243.29 55.42 251.8 43.786q8.51-11.635 14.543-19.498t9.156-12.281q3.124-4.416 3.124-5.709 0-.646-.538-1.293t-1.185-.646z" style="fill-rule:nonzero"/></svg>