<?xml version="1.0" encoding="utf-8"?>
<!-- Generator: Adobe Illustrator 21.0.0, SVG Export Plug-In . SVG Version: 6.00 Build 0)  -->
<svg version="1.1" xmlns="http://www.w3.org/2000/svg" xmlns:xlink="http://www.w3.org/1999/xlink" x="0px" y="0px"
	 viewBox="0 0 297 382" style="enable-background:new 0 0 297 382;" xml:space="preserve">
<style type="text/css">
	.st0{fill:#AAB42F;}
</style>
<g id="Layer_2">
</g>
<g id="Layer_3">
	<path class="st0" d="M244,0H53C23.7,0,0,23.7,0,53v191c0,24,15.9,44.3,37.8,50.8l-2.3,66.4c0,10.7,12.7,20.8,20.5,20.8h6
		c3.5,0,9.1-2.5,10.5-3.8l83.4-81.2H244c29.3,0,53-23.7,53-53V53C297,23.7,273.3,0,244,0z M130,36h32c8.8,0,15.7,8.1,15.4,17.9
		l-2.9,92.8c-0.2,7.9-6.7,14.3-14.5,14.3h-28.1c-7.8,0-14.3-6.3-14.5-14.3l-2.9-92.8C114.3,44.1,121.2,36,130,36z M178,228
		c0,8.8-7.2,16-16,16h-32c-8.8,0-16-7.2-16-16v-27c0-8.8,7.2-16,16-16h32c8.8,0,16,7.2,16,16V228z"/>
</g>
</svg>
