<svg xmlns="http://www.w3.org/2000/svg" viewBox="0 0 142 32"><rect width="32" height="26" rx="4" ry="4" fill="#aab42f"/><rect x="12" y="22" width="8" height="8" transform="translate(-13.7 18.93) rotate(-45)" fill="#aab42f"/><path d="M47.66,21.58a5.09,5.09,0,0,1-2.36-.51,5,5,0,0,1-1.73-1.5L45,18.29a4,4,0,0,0,1.2,1.18,2.91,2.91,0,0,0,1.53.39A2,2,0,0,0,49,19.47a1.43,1.43,0,0,0,.46-1.16,1.46,1.46,0,0,0-.29-1,1.78,1.78,0,0,0-1.07-.51l-.94-.17a4.7,4.7,0,0,1-2.44-1,2.86,2.86,0,0,1-.78-2.18,3,3,0,0,1,1-2.5,4.16,4.16,0,0,1,2.71-.81,4.93,4.93,0,0,1,2.15.43,4.6,4.6,0,0,1,1.56,1.25l-1.3,1.28A2.88,2.88,0,0,0,49,12.19a3,3,0,0,0-1.33-.31Q46,11.88,46,13.39a1.28,1.28,0,0,0,.34,1,2,2,0,0,0,1.07.45l1,.19a4.37,4.37,0,0,1,2.42,1,2.8,2.8,0,0,1,.72,2,3.32,3.32,0,0,1-1,2.58A4.11,4.11,0,0,1,47.66,21.58Z" transform="translate(0 0)"/><path d="M53.84,21.33V10.41H56v1.81h.25a2.59,2.59,0,0,1,2.63-2.06,2.66,2.66,0,0,1,2.71,2.1h.23a2.92,2.92,0,0,1,1.07-1.58,3.14,3.14,0,0,1,1.85-.51,2.64,2.64,0,0,1,2.19,1,4.65,4.65,0,0,1,.79,2.93v7.25H65.55v-7a3,3,0,0,0-.43-1.76A1.5,1.5,0,0,0,63.81,12a2,2,0,0,0-1.38.51A1.83,1.83,0,0,0,61.86,14v7.37H59.7v-7a3,3,0,0,0-.43-1.76A1.5,1.5,0,0,0,58,12a2,2,0,0,0-1.39.51A1.84,1.84,0,0,0,56,14v7.37Z" transform="translate(0 0)"/><path d="M71.64,8.33q-1.3,0-1.3-1.11V6.84q0-1.11,1.3-1.11t1.3,1.11v.38Q72.95,8.33,71.64,8.33Zm-1.07,2.08h2.16V21.33H70.57Z" transform="translate(0 0)"/><path d="M78.36,21.33a2.29,2.29,0,0,1-1.65-.5,2.22,2.22,0,0,1-.51-1.64v-7H74.69V10.41h.84a.83.83,0,0,0,.7-.24,1.3,1.3,0,0,0,.18-.77v-2h2v3h2V12.2h-2v7.35h1.89v1.79Z" transform="translate(0 0)"/><path d="M82.56,5.79h2.16v6.43H85a2.62,2.62,0,0,1,2.69-2.06,2.77,2.77,0,0,1,2.28,1,4.57,4.57,0,0,1,.81,2.93v7.25H88.59v-7a3,3,0,0,0-.44-1.76A1.59,1.59,0,0,0,86.76,12a2.12,2.12,0,0,0-1.45.51A1.81,1.81,0,0,0,84.73,14v7.37H82.56Z" transform="translate(0 0)"/><path d="M97.56,21.58a5.17,5.17,0,0,1-1.89-.34,3.69,3.69,0,0,1-1.47-1,5.06,5.06,0,0,1-1-1.78,8.38,8.38,0,0,1-.35-2.56,9.26,9.26,0,0,1,.31-2.57,4.67,4.67,0,0,1,.91-1.77,3.7,3.7,0,0,1,1.43-1,5,5,0,0,1,1.88-.34,4,4,0,0,1,3.24,1.37,6.63,6.63,0,0,1,1.17,4.35v.55H95.16v.69a2.78,2.78,0,0,0,.66,2,2.39,2.39,0,0,0,1.82.69,2.81,2.81,0,0,0,1.63-.44,3.56,3.56,0,0,0,1.08-1.24l1.26,1.2a4.38,4.38,0,0,1-4.05,2.27Zm-.13-9.7a2.13,2.13,0,0,0-1.68.66,2.91,2.91,0,0,0-.59,2V15h4.39v-.44Q99.55,11.88,97.43,11.88Z" transform="translate(0 0)"/><path d="M104.11,21.33V10.41h2.16v2.16h.25A2.87,2.87,0,0,1,107.4,11a2.39,2.39,0,0,1,1.63-.56h.55v2.21h-.92a3,3,0,0,0-1.76.44,1.62,1.62,0,0,0-.61,1.41v6.87Z" transform="translate(0 0)"/><path d="M115.34,21.58a5.17,5.17,0,0,1-1.89-.34,3.69,3.69,0,0,1-1.47-1,5.06,5.06,0,0,1-1-1.78,8.38,8.38,0,0,1-.35-2.56A9.26,9.26,0,0,1,111,13.3a4.67,4.67,0,0,1,.91-1.77,3.7,3.7,0,0,1,1.43-1,5,5,0,0,1,1.88-.34,4,4,0,0,1,3.24,1.37,6.63,6.63,0,0,1,1.17,4.35v.55H113v.69a2.78,2.78,0,0,0,.66,2,2.39,2.39,0,0,0,1.82.69,2.81,2.81,0,0,0,1.63-.44,3.56,3.56,0,0,0,1.08-1.24l1.26,1.2a4.38,4.38,0,0,1-4.05,2.27Zm-.13-9.7a2.13,2.13,0,0,0-1.68.66,2.91,2.91,0,0,0-.59,2V15h4.39v-.44Q117.34,11.88,115.22,11.88Z" transform="translate(0 0)"/><path d="M125.87,21.58a5.17,5.17,0,0,1-1.89-.34,3.69,3.69,0,0,1-1.47-1,5.06,5.06,0,0,1-1-1.78,8.38,8.38,0,0,1-.35-2.56,9.26,9.26,0,0,1,.31-2.57,4.67,4.67,0,0,1,.91-1.77,3.7,3.7,0,0,1,1.43-1,5,5,0,0,1,1.88-.34A4,4,0,0,1,129,11.52a6.63,6.63,0,0,1,1.17,4.35v.55h-6.68v.69a2.78,2.78,0,0,0,.66,2,2.39,2.39,0,0,0,1.82.69,2.81,2.81,0,0,0,1.63-.44,3.56,3.56,0,0,0,1.08-1.24l1.26,1.2a4.38,4.38,0,0,1-4.05,2.27Zm-.13-9.7a2.13,2.13,0,0,0-1.68.66,2.91,2.91,0,0,0-.59,2V15h4.39v-.44Q127.86,11.88,125.74,11.88Z" transform="translate(0 0)"/><path d="M132.42,21.33V10.41h2.16v1.81h.25a2.62,2.62,0,0,1,2.69-2.06,2.77,2.77,0,0,1,2.28,1,4.57,4.57,0,0,1,.81,2.93v7.25h-2.16v-7a3,3,0,0,0-.44-1.76,1.59,1.59,0,0,0-1.39-.61,2.12,2.12,0,0,0-1.45.51,1.81,1.81,0,0,0-.59,1.44v7.37Z" transform="translate(0 0)"/><rect x="13" y="18.22" width="6" height="5.53" rx="1.5" ry="1.5" fill="#fff"/><path d="M17.32,16H14.68a1.38,1.38,0,0,1-1.36-1.34l-.27-8.7A1.54,1.54,0,0,1,14.5,4.25h3a1.54,1.54,0,0,1,1.45,1.68l-.27,8.7A1.38,1.38,0,0,1,17.32,16Z" transform="translate(0 0)" fill="#fff"/></svg>