<svg xmlns="http://www.w3.org/2000/svg" xmlns:xlink="http://www.w3.org/1999/xlink" width="36" height="36" viewBox="0 0 36 36"><defs><linearGradient id="a" x1="18" y1="2.5" x2="18" y2="32.95" gradientUnits="userSpaceOnUse"><stop offset="0" stop-color="#fff"/><stop offset="1" stop-color="#eee"/></linearGradient><filter id="s"><feDropShadow dx="0" dy="1" stdDeviation="1" flood-opacity="0.3"/></filter></defs><path d="M12.55,27.5H6A3.5,3.5,0,0,1,2.5,24V6A3.5,3.5,0,0,1,6,2.5H30A3.5,3.5,0,0,1,33.5,6V24A3.5,3.5,0,0,1,30,27.5H23.45L18,33Zm4-8a2,2,0,0,0-2,2v3a2,2,0,0,0,2,2h3a2,2,0,0,0,2-2v-3a2,2,0,0,0-2-2Zm0-14a1.86,1.86,0,0,0-1.34.58,2.27,2.27,0,0,0-.66,1.61l.32,9a1.89,1.89,0,0,0,1.86,1.82h2.64a1.89,1.89,0,0,0,1.86-1.82l.32-9a2.27,2.27,0,0,0-.66-1.61A1.86,1.86,0,0,0,19.5,5.5Z" stroke="#fff" stroke-miterlimit="10" fill="url(#a)" filter="url(#s)"/></svg>