<?xml version="1.0" encoding="UTF-8" standalone="no"?>
<!DOCTYPE svg PUBLIC "-//W3C//DTD SVG 1.1//EN" "http://www.w3.org/Graphics/SVG/1.1/DTD/svg11.dtd">
<svg width="24px" height="24px" version="1.1" xmlns="http://www.w3.org/2000/svg" xmlns:xlink="http://www.w3.org/1999/xlink" xml:space="preserve" xmlns:serif="http://www.serif.com/" style="fill-rule:evenodd;clip-rule:evenodd;stroke-linejoin:round;stroke-miterlimit:2;">
    <rect x="0" y="0" width="24" height="24" style="fill:none;fill-rule:nonzero;"/>
    <path d="M19.04,11.114L11.559,18.596C10.081,20.073 7.684,20.307 6.072,18.977C4.226,17.457 4.127,14.714 5.782,13.059L14.522,4.319C15.448,3.393 16.954,3.216 17.965,4.043C19.132,4.998 19.196,6.716 18.156,7.756L10.732,15.18C10.343,15.569 9.706,15.569 9.317,15.18C8.928,14.791 8.928,14.155 9.317,13.766L15.505,7.579C15.794,7.289 15.794,6.808 15.505,6.518C15.215,6.228 14.734,6.228 14.444,6.518L8.356,12.606C7.429,13.533 7.253,15.039 8.08,16.05C9.034,17.217 10.753,17.28 11.792,16.241L19.097,8.937C20.574,7.459 20.808,5.062 19.478,3.449C17.951,1.597 15.215,1.505 13.56,3.159L4.884,11.836C2.854,13.865 2.522,17.167 4.353,19.381C6.468,21.919 10.222,22.053 12.499,19.776L20.101,12.175C20.391,11.885 20.391,11.404 20.101,11.114C19.811,10.825 19.33,10.825 19.04,11.114Z" style="fill-rule:nonzero;"/>
</svg>
