<?xml version="1.0" encoding="UTF-8" standalone="no"?>
<!DOCTYPE svg PUBLIC "-//W3C//DTD SVG 1.1//EN" "http://www.w3.org/Graphics/SVG/1.1/DTD/svg11.dtd">
<svg width="464px" height="130px" viewBox="0 0 928 260" version="1.1" xmlns="http://www.w3.org/2000/svg" xmlns:xlink="http://www.w3.org/1999/xlink" xml:space="preserve" xmlns:serif="http://www.serif.com/" style="fill-rule:evenodd;clip-rule:evenodd;stroke-linejoin:round;stroke-miterlimit:2;">
	<style>
		@media(prefers-color-scheme: dark){
			.logoText{
				fill: #fff;
			}
		}
	</style>
	<g class="logoText">
		<path d="M291.296,91.68C291.296,95.904 291.848,99.408 292.952,102.192C294.056,104.976 295.544,107.376 297.416,109.392C299.288,111.408 301.496,113.184 304.04,114.72C306.584,116.256 309.296,117.84 312.176,119.472C317.648,122.544 321.752,125.832 324.488,129.336C327.224,132.84 328.592,136.8 328.592,141.216C328.592,143.712 328.184,146.016 327.368,148.128C326.552,150.24 325.448,152.064 324.056,153.6C322.664,155.136 321.008,156.336 319.088,157.2C317.168,158.064 315.152,158.496 313.04,158.496C309.392,158.496 305.96,157.152 302.744,154.464C299.528,151.776 297.2,147.984 295.76,143.088C295.376,141.744 295.088,140.448 294.896,139.2C294.704,137.952 294.536,136.872 294.392,135.96C294.248,135.048 294.032,134.328 293.744,133.8C293.456,133.272 292.976,133.008 292.304,133.008C290.864,133.008 290.144,134.496 290.144,137.472C290.144,137.664 290.168,138.072 290.216,138.696C290.264,139.32 290.288,140.16 290.288,141.216C290.288,142.56 290.24,144 290.144,145.536C290.048,147.072 290,148.656 290,150.288C290,154.416 291.968,157.512 295.904,159.576C299.84,161.64 304.976,162.672 311.312,162.672C315.344,162.672 319.064,161.928 322.472,160.44C325.88,158.952 328.808,156.912 331.256,154.32C333.704,151.728 335.624,148.656 337.016,145.104C338.408,141.552 339.104,137.664 339.104,133.44C339.104,129.408 338.576,125.856 337.52,122.784C336.464,119.712 334.904,116.952 332.84,114.504C330.776,112.056 328.256,109.824 325.28,107.808C322.304,105.792 318.896,103.776 315.056,101.76C310.448,99.36 307.064,96.96 304.904,94.56C302.744,92.16 301.664,89.04 301.664,85.2C301.664,80.592 302.888,76.968 305.336,74.328C307.784,71.688 311.168,70.368 315.488,70.368C318.848,70.368 321.44,71.376 323.264,73.392C325.088,75.408 326.768,78.336 328.304,82.176C329.36,84.672 330.056,86.568 330.392,87.864C330.728,89.16 331.424,89.808 332.48,89.808C333.728,89.808 334.352,88.8 334.352,86.784C334.352,77.28 333.968,72.048 333.2,71.088C332.528,70.224 330.632,69.264 327.512,68.208C324.392,67.152 320.816,66.624 316.784,66.624C312.848,66.624 309.32,67.224 306.2,68.424C303.08,69.624 300.416,71.328 298.208,73.536C296,75.744 294.296,78.384 293.096,81.456C291.896,84.528 291.296,87.936 291.296,91.68Z" style="fill-rule:nonzero;"/>
		<path d="M365.744,96.576C365.744,95.712 365.648,94.992 365.456,94.416C365.264,93.84 365.024,93.552 364.736,93.552C364.448,93.552 364.064,93.768 363.584,94.2C363.104,94.632 362.504,95.208 361.784,95.928C361.064,96.648 360.152,97.488 359.048,98.448C357.944,99.408 356.576,100.368 354.944,101.328C353.024,102.384 351.368,103.2 349.976,103.776C348.584,104.352 347.888,105.264 347.888,106.512C347.888,107.376 348.224,107.856 348.896,107.952C349.568,108.048 350.288,108.192 351.056,108.384C351.824,108.576 352.544,109.128 353.216,110.04C353.888,110.952 354.224,112.656 354.224,115.152L354.224,149.136C354.224,150.96 354.08,152.328 353.792,153.24C353.504,154.152 352.832,154.848 351.776,155.328C351.2,155.616 350.648,155.808 350.12,155.904C349.592,156 349.136,156.096 348.752,156.192C348.368,156.288 348.056,156.456 347.816,156.696C347.576,156.936 347.456,157.392 347.456,158.064C347.456,159.696 348.224,160.512 349.76,160.512C350.816,160.512 352.208,160.344 353.936,160.008C355.664,159.672 357.776,159.504 360.272,159.504C362.672,159.504 364.832,159.672 366.752,160.008C368.672,160.344 370.352,160.512 371.792,160.512C373.52,160.512 374.384,159.744 374.384,158.208C374.384,157.536 374.216,157.056 373.88,156.768C373.544,156.48 373.112,156.264 372.584,156.12C372.056,155.976 371.432,155.856 370.712,155.76C369.992,155.664 369.248,155.424 368.48,155.04C367.616,154.56 367.04,153.888 366.752,153.024C366.464,152.16 366.32,150.864 366.32,149.136L366.32,117.744C366.32,112.56 367.328,108.72 369.344,106.224C371.36,103.728 374.048,102.48 377.408,102.48C381.632,102.48 384.488,104.376 385.976,108.168C387.464,111.96 388.208,117.6 388.208,125.088L388.208,149.136C388.208,151.056 388.04,152.424 387.704,153.24C387.368,154.056 386.672,154.752 385.616,155.328C385.04,155.616 384.512,155.784 384.032,155.832C383.552,155.88 383.096,155.952 382.664,156.048C382.232,156.144 381.896,156.336 381.656,156.624C381.416,156.912 381.296,157.392 381.296,158.064C381.296,159.696 382.064,160.512 383.6,160.512C384.656,160.512 386.048,160.344 387.776,160.008C389.504,159.672 391.616,159.504 394.112,159.504C396.416,159.504 398.552,159.672 400.52,160.008C402.488,160.344 404.192,160.512 405.632,160.512C407.36,160.512 408.224,159.744 408.224,158.208C408.224,157.536 408.056,157.056 407.72,156.768C407.384,156.48 406.952,156.264 406.424,156.12C405.896,155.976 405.272,155.856 404.552,155.76C403.832,155.664 403.088,155.424 402.32,155.04C401.456,154.56 400.904,153.888 400.664,153.024C400.424,152.16 400.304,150.864 400.304,149.136L400.304,117.744C400.304,112.56 401.312,108.72 403.328,106.224C405.344,103.728 407.984,102.48 411.248,102.48C415.568,102.48 418.424,104.4 419.816,108.24C421.208,112.08 421.904,117.696 421.904,125.088L421.904,149.136C421.904,150.96 421.76,152.328 421.472,153.24C421.184,154.152 420.512,154.848 419.456,155.328C418.88,155.616 418.328,155.808 417.8,155.904C417.272,156 416.816,156.096 416.432,156.192C416.048,156.288 415.736,156.456 415.496,156.696C415.256,156.936 415.136,157.392 415.136,158.064C415.136,159.696 415.904,160.512 417.44,160.512C418.496,160.512 419.888,160.344 421.616,160.008C423.344,159.672 425.456,159.504 427.952,159.504C430.352,159.504 432.512,159.672 434.432,160.008C436.352,160.344 438.032,160.512 439.472,160.512C441.2,160.512 442.064,159.744 442.064,158.208C442.064,157.536 441.896,157.056 441.56,156.768C441.224,156.48 440.792,156.264 440.264,156.12C439.736,155.976 439.112,155.856 438.392,155.76C437.672,155.664 436.928,155.424 436.16,155.04C435.296,154.56 434.72,153.888 434.432,153.024C434.144,152.16 434,150.864 434,149.136L434,115.152C434,108.72 432.464,103.584 429.392,99.744C426.32,95.904 422.336,93.984 417.44,93.984C410.336,93.984 404.432,97.776 399.728,105.36L399.008,105.36C397.088,102 394.88,99.264 392.384,97.152C389.888,95.04 386.672,93.984 382.736,93.984C380.048,93.984 377.48,94.656 375.032,96C372.584,97.344 370.448,99.264 368.624,101.76L367.184,103.632C366.704,104.208 366.368,104.496 366.176,104.496C365.888,104.496 365.744,103.872 365.744,102.624L365.744,96.576Z" style="fill-rule:nonzero;"/>
		<path d="M460.352,68.928C458.624,68.928 457.136,69.744 455.888,71.376C454.64,73.008 454.016,74.832 454.016,76.848C454.016,78.864 454.64,80.688 455.888,82.32C457.136,83.952 458.624,84.768 460.352,84.768C462.08,84.768 463.568,83.952 464.816,82.32C466.064,80.688 466.688,78.864 466.688,76.848C466.688,74.832 466.064,73.008 464.816,71.376C463.568,69.744 462.08,68.928 460.352,68.928ZM465.824,96.576C465.824,94.56 465.344,93.552 464.384,93.552C464,93.552 463.592,93.768 463.16,94.2C462.728,94.632 462.176,95.184 461.504,95.856C460.832,96.528 459.992,97.296 458.984,98.16C457.976,99.024 456.752,99.888 455.312,100.752C452.912,102.096 451.064,103.104 449.768,103.776C448.472,104.448 447.824,105.312 447.824,106.368C447.824,107.328 448.136,107.832 448.76,107.88C449.384,107.928 450.056,108.072 450.776,108.312C451.496,108.552 452.168,109.104 452.792,109.968C453.416,110.832 453.728,112.56 453.728,115.152L453.728,149.136C453.728,151.056 453.608,152.424 453.368,153.24C453.128,154.056 452.48,154.752 451.424,155.328C450.848,155.616 450.32,155.784 449.84,155.832C449.36,155.88 448.904,155.952 448.472,156.048C448.04,156.144 447.704,156.336 447.464,156.624C447.224,156.912 447.104,157.392 447.104,158.064C447.104,159.696 447.824,160.512 449.264,160.512C450.32,160.512 451.712,160.344 453.44,160.008C455.168,159.672 457.28,159.504 459.776,159.504C462.08,159.504 464.24,159.672 466.256,160.008C468.272,160.344 470,160.512 471.44,160.512C473.168,160.512 474.032,159.744 474.032,158.208C474.032,157.536 473.864,157.056 473.528,156.768C473.192,156.48 472.76,156.264 472.232,156.12C471.704,155.976 471.08,155.856 470.36,155.76C469.64,155.664 468.896,155.424 468.128,155.04C467.264,154.56 466.664,153.888 466.328,153.024C465.992,152.16 465.824,150.864 465.824,149.136L465.824,96.576Z" style="fill-rule:nonzero;"/>
		<path d="M496.64,85.92C496.64,84.864 496.568,84.024 496.424,83.4C496.28,82.776 495.872,82.464 495.2,82.464C494.336,82.464 493.352,83.424 492.248,85.344C491.144,87.264 489.44,89.568 487.136,92.256C485.792,93.696 484.568,94.848 483.464,95.712C482.36,96.576 481.376,97.296 480.512,97.872C479.648,98.448 478.976,98.976 478.496,99.456C478.016,99.936 477.776,100.464 477.776,101.04C477.776,102.288 478.64,102.912 480.368,102.912L482.96,102.912C483.92,102.912 484.496,103.32 484.688,104.136C484.88,104.952 484.976,106.032 484.976,107.376L484.4,138.336L484.4,144.384C484.4,156.576 488.24,162.672 495.92,162.672C498.128,162.672 500.216,162.264 502.184,161.448C504.152,160.632 505.88,159.648 507.368,158.496C508.856,157.344 510.032,156.192 510.896,155.04C511.76,153.888 512.192,152.976 512.192,152.304C512.192,150.96 511.712,150.288 510.752,150.288C510.272,150.288 509.768,150.48 509.24,150.864C508.712,151.248 508.112,151.704 507.44,152.232C506.768,152.76 506.024,153.216 505.208,153.6C504.392,153.984 503.456,154.176 502.4,154.176C500.192,154.176 498.68,153.144 497.864,151.08C497.048,149.016 496.64,145.728 496.64,141.216L496.64,104.784C496.64,103.536 497.216,102.912 498.368,102.912L509.312,102.912C510.176,102.912 510.704,102.768 510.896,102.48C511.088,102.192 511.184,101.664 511.184,100.896L511.184,98.016C511.184,97.44 511.088,97.056 510.896,96.864C510.704,96.672 510.176,96.576 509.312,96.576L498.512,96.576C497.264,96.576 496.64,95.952 496.64,94.704L496.64,85.92Z" style="fill-rule:nonzero;"/>
		<path d="M535.088,72.528C535.088,70.608 535.16,68.832 535.304,67.2C535.448,65.568 535.52,64.08 535.52,62.736C535.52,61.872 535.424,61.2 535.232,60.72C535.04,60.24 534.56,60 533.792,60C533.312,60 532.28,60.552 530.696,61.656C529.112,62.76 526.64,63.936 523.28,65.184C521.456,65.856 519.896,66.36 518.6,66.696C517.304,67.032 516.656,67.728 516.656,68.784C516.656,69.552 516.992,70.008 517.664,70.152C518.336,70.296 519.056,70.536 519.824,70.872C520.592,71.208 521.312,71.808 521.984,72.672C522.656,73.536 522.992,75.024 522.992,77.136L522.992,148.992C522.992,150.816 522.872,152.184 522.632,153.096C522.392,154.008 521.504,154.752 519.968,155.328C519.2,155.616 518.504,155.808 517.88,155.904C517.256,156 516.728,156.096 516.296,156.192C515.864,156.288 515.504,156.456 515.216,156.696C514.928,156.936 514.784,157.392 514.784,158.064C514.784,159.6 515.648,160.368 517.376,160.368C518.528,160.368 520.064,160.224 521.984,159.936C523.904,159.648 526.256,159.504 529.04,159.504C531.824,159.504 534.176,159.648 536.096,159.936C538.016,160.224 539.456,160.368 540.416,160.368C542.048,160.368 542.864,159.696 542.864,158.352C542.864,157.488 542.696,156.912 542.36,156.624C542.024,156.336 541.592,156.12 541.064,155.976C540.536,155.832 539.936,155.736 539.264,155.688C538.592,155.64 537.92,155.376 537.248,154.896C536.384,154.32 535.808,153.552 535.52,152.592C535.232,151.632 535.088,150.432 535.088,148.992L535.088,117.744C535.088,112.56 536.216,108.72 538.472,106.224C540.728,103.728 543.584,102.48 547.04,102.48C554.624,102.48 558.416,108.288 558.416,119.904L558.416,148.992C558.416,150.72 558.272,152.016 557.984,152.88C557.696,153.744 556.832,154.512 555.392,155.184C554.72,155.472 554.072,155.664 553.448,155.76C552.824,155.856 552.272,155.952 551.792,156.048C551.312,156.144 550.928,156.336 550.64,156.624C550.352,156.912 550.208,157.392 550.208,158.064C550.208,159.6 551.072,160.368 552.8,160.368C554.144,160.368 555.8,160.224 557.768,159.936C559.736,159.648 561.968,159.504 564.464,159.504C566.864,159.504 568.952,159.648 570.728,159.936C572.504,160.224 573.92,160.368 574.976,160.368C576.416,160.368 577.136,159.696 577.136,158.352C577.136,157.584 577.016,157.056 576.776,156.768C576.536,156.48 576.2,156.264 575.768,156.12C575.336,155.976 574.832,155.832 574.256,155.688C573.68,155.544 573.008,155.184 572.24,154.608C571.472,154.128 570.992,153.456 570.8,152.592C570.608,151.728 570.512,150.528 570.512,148.992L570.512,116.736C570.512,109.44 568.904,103.824 565.688,99.888C562.472,95.952 557.984,93.984 552.224,93.984C549.536,93.984 546.944,94.68 544.448,96.072C541.952,97.464 539.792,99.36 537.968,101.76L536.528,103.632C536.048,104.208 535.664,104.496 535.376,104.496C535.184,104.496 535.088,103.872 535.088,102.624L535.088,72.528Z" style="fill-rule:nonzero;"/>
		<path d="M608.384,114.864L599.024,114.864C597.872,114.864 597.296,114.432 597.296,113.568L597.296,113.28L597.728,110.976C598.496,107.04 600.128,103.776 602.624,101.184C605.12,98.592 608.048,97.296 611.408,97.296C614.48,97.296 617,98.304 618.968,100.32C620.936,102.336 621.92,104.544 621.92,106.944C621.92,110.112 620.84,112.224 618.68,113.28C616.52,114.336 613.088,114.864 608.384,114.864ZM629.696,119.328C631.424,119.328 632.672,119.136 633.44,118.752C634.208,118.368 634.592,117.552 634.592,116.304C634.592,113.232 634.04,110.352 632.936,107.664C631.832,104.976 630.272,102.624 628.256,100.608C626.24,98.592 623.792,96.984 620.912,95.784C618.032,94.584 614.864,93.984 611.408,93.984C607.376,93.984 603.656,94.8 600.248,96.432C596.84,98.064 593.888,100.368 591.392,103.344C588.896,106.32 586.952,109.944 585.56,114.216C584.168,118.488 583.472,123.264 583.472,128.544C583.472,133.824 584.096,138.576 585.344,142.8C586.592,147.024 588.368,150.624 590.672,153.6C592.976,156.576 595.736,158.856 598.952,160.44C602.168,162.024 605.744,162.816 609.68,162.816C613.424,162.816 616.784,162.192 619.76,160.944C622.736,159.696 625.304,158.232 627.464,156.552C629.624,154.872 631.28,153.168 632.432,151.44C633.584,149.712 634.16,148.32 634.16,147.264C634.16,146.208 633.776,145.68 633.008,145.68C632.72,145.68 632.216,146.112 631.496,146.976C630.776,147.84 629.768,148.8 628.472,149.856C627.176,150.912 625.544,151.872 623.576,152.736C621.608,153.6 619.28,154.032 616.592,154.032C610.544,154.032 605.624,151.44 601.832,146.256C598.04,141.072 596.144,134.016 596.144,125.088L596.144,121.632C596.144,120.672 596.24,120.048 596.432,119.76C596.624,119.472 597.104,119.328 597.872,119.328L629.696,119.328Z" style="fill-rule:nonzero;"/>
		<path d="M660.368,96.576C660.368,94.56 659.888,93.552 658.928,93.552C658.064,93.552 656.984,94.344 655.688,95.928C654.392,97.512 652.352,99.264 649.568,101.184C647.552,102.528 645.92,103.464 644.672,103.992C643.424,104.52 642.8,105.312 642.8,106.368C642.8,107.232 643.112,107.736 643.736,107.88C644.36,108.024 645.032,108.192 645.752,108.384C646.472,108.576 647.144,108.96 647.768,109.536C648.392,110.112 648.704,111.264 648.704,112.992L648.704,149.856C648.704,151.2 648.584,152.232 648.344,152.952C648.104,153.672 647.312,154.368 645.968,155.04C645.2,155.424 644.48,155.664 643.808,155.76C643.136,155.856 642.56,155.976 642.08,156.12C641.6,156.264 641.216,156.456 640.928,156.696C640.64,156.936 640.496,157.392 640.496,158.064C640.496,159.6 641.36,160.368 643.088,160.368C644.624,160.368 646.376,160.224 648.344,159.936C650.312,159.648 652.448,159.504 654.752,159.504C657.248,159.504 659.624,159.672 661.88,160.008C664.136,160.344 666.224,160.512 668.144,160.512C669.2,160.512 669.992,160.296 670.52,159.864C671.048,159.432 671.312,158.928 671.312,158.352C671.312,157.584 671.12,157.056 670.736,156.768C670.352,156.48 669.848,156.264 669.224,156.12C668.6,155.976 667.808,155.832 666.848,155.688C665.888,155.544 664.832,155.184 663.68,154.608C662.528,154.128 661.76,153.48 661.376,152.664C660.992,151.848 660.8,150.624 660.8,148.992L660.8,117.744C660.8,108.72 662.576,104.208 666.128,104.208C666.896,104.208 667.664,104.568 668.432,105.288C669.2,106.008 670.016,106.8 670.88,107.664C671.744,108.528 672.704,109.32 673.76,110.04C674.816,110.76 676.064,111.12 677.504,111.12C679.328,111.12 680.888,110.448 682.184,109.104C683.48,107.76 684.128,106.032 684.128,103.92C684.128,101.04 683.216,98.64 681.392,96.72C679.568,94.8 677.36,93.84 674.768,93.84C671.312,93.84 668.048,95.664 664.976,99.312L662.096,102.48C661.424,103.152 660.992,103.488 660.8,103.488C660.512,103.488 660.368,103.056 660.368,102.192L660.368,96.576Z" style="fill-rule:nonzero;"/>
		<path d="M711.632,114.864L702.272,114.864C701.12,114.864 700.544,114.432 700.544,113.568L700.544,113.28L700.976,110.976C701.744,107.04 703.376,103.776 705.872,101.184C708.368,98.592 711.296,97.296 714.656,97.296C717.728,97.296 720.248,98.304 722.216,100.32C724.184,102.336 725.168,104.544 725.168,106.944C725.168,110.112 724.088,112.224 721.928,113.28C719.768,114.336 716.336,114.864 711.632,114.864ZM732.944,119.328C734.672,119.328 735.92,119.136 736.688,118.752C737.456,118.368 737.84,117.552 737.84,116.304C737.84,113.232 737.288,110.352 736.184,107.664C735.08,104.976 733.52,102.624 731.504,100.608C729.488,98.592 727.04,96.984 724.16,95.784C721.28,94.584 718.112,93.984 714.656,93.984C710.624,93.984 706.904,94.8 703.496,96.432C700.088,98.064 697.136,100.368 694.64,103.344C692.144,106.32 690.2,109.944 688.808,114.216C687.416,118.488 686.72,123.264 686.72,128.544C686.72,133.824 687.344,138.576 688.592,142.8C689.84,147.024 691.616,150.624 693.92,153.6C696.224,156.576 698.984,158.856 702.2,160.44C705.416,162.024 708.992,162.816 712.928,162.816C716.672,162.816 720.032,162.192 723.008,160.944C725.984,159.696 728.552,158.232 730.712,156.552C732.872,154.872 734.528,153.168 735.68,151.44C736.832,149.712 737.408,148.32 737.408,147.264C737.408,146.208 737.024,145.68 736.256,145.68C735.968,145.68 735.464,146.112 734.744,146.976C734.024,147.84 733.016,148.8 731.72,149.856C730.424,150.912 728.792,151.872 726.824,152.736C724.856,153.6 722.528,154.032 719.84,154.032C713.792,154.032 708.872,151.44 705.08,146.256C701.288,141.072 699.392,134.016 699.392,125.088L699.392,121.632C699.392,120.672 699.488,120.048 699.68,119.76C699.872,119.472 700.352,119.328 701.12,119.328L732.944,119.328Z" style="fill-rule:nonzero;"/>
		<path d="M770.24,114.864L760.88,114.864C759.728,114.864 759.152,114.432 759.152,113.568L759.152,113.28L759.584,110.976C760.352,107.04 761.984,103.776 764.48,101.184C766.976,98.592 769.904,97.296 773.264,97.296C776.336,97.296 778.856,98.304 780.824,100.32C782.792,102.336 783.776,104.544 783.776,106.944C783.776,110.112 782.696,112.224 780.536,113.28C778.376,114.336 774.944,114.864 770.24,114.864ZM791.552,119.328C793.28,119.328 794.528,119.136 795.296,118.752C796.064,118.368 796.448,117.552 796.448,116.304C796.448,113.232 795.896,110.352 794.792,107.664C793.688,104.976 792.128,102.624 790.112,100.608C788.096,98.592 785.648,96.984 782.768,95.784C779.888,94.584 776.72,93.984 773.264,93.984C769.232,93.984 765.512,94.8 762.104,96.432C758.696,98.064 755.744,100.368 753.248,103.344C750.752,106.32 748.808,109.944 747.416,114.216C746.024,118.488 745.328,123.264 745.328,128.544C745.328,133.824 745.952,138.576 747.2,142.8C748.448,147.024 750.224,150.624 752.528,153.6C754.832,156.576 757.592,158.856 760.808,160.44C764.024,162.024 767.6,162.816 771.536,162.816C775.28,162.816 778.64,162.192 781.616,160.944C784.592,159.696 787.16,158.232 789.32,156.552C791.48,154.872 793.136,153.168 794.288,151.44C795.44,149.712 796.016,148.32 796.016,147.264C796.016,146.208 795.632,145.68 794.864,145.68C794.576,145.68 794.072,146.112 793.352,146.976C792.632,147.84 791.624,148.8 790.328,149.856C789.032,150.912 787.4,151.872 785.432,152.736C783.464,153.6 781.136,154.032 778.448,154.032C772.4,154.032 767.48,151.44 763.688,146.256C759.896,141.072 758,134.016 758,125.088L758,121.632C758,120.672 758.096,120.048 758.288,119.76C758.48,119.472 758.96,119.328 759.728,119.328L791.552,119.328Z" style="fill-rule:nonzero;"/>
		<path d="M822.512,96.72C822.512,95.664 822.368,94.896 822.08,94.416C821.792,93.936 821.504,93.696 821.216,93.696C820.352,93.696 819.344,94.464 818.192,96C817.04,97.536 815.072,99.12 812.288,100.752C809.888,102.192 808.064,103.272 806.816,103.992C805.568,104.712 804.944,105.552 804.944,106.512C804.944,107.472 805.256,107.976 805.88,108.024C806.504,108.072 807.2,108.192 807.968,108.384C808.736,108.576 809.432,109.104 810.056,109.968C810.68,110.832 810.992,112.56 810.992,115.152L810.992,149.136C810.992,151.056 810.848,152.448 810.56,153.312C810.272,154.176 809.6,154.848 808.544,155.328C807.968,155.616 807.416,155.784 806.888,155.832C806.36,155.88 805.904,155.952 805.52,156.048C805.136,156.144 804.824,156.336 804.584,156.624C804.344,156.912 804.224,157.392 804.224,158.064C804.224,159.696 804.992,160.512 806.528,160.512C807.584,160.512 808.976,160.344 810.704,160.008C812.432,159.672 814.544,159.504 817.04,159.504C819.44,159.504 821.6,159.672 823.52,160.008C825.44,160.344 827.072,160.512 828.416,160.512C830.144,160.512 831.008,159.792 831.008,158.352C831.008,157.488 830.864,156.912 830.576,156.624C830.288,156.336 829.88,156.144 829.352,156.048C828.824,155.952 828.224,155.88 827.552,155.832C826.88,155.784 826.112,155.52 825.248,155.04C824.288,154.56 823.688,153.864 823.448,152.952C823.208,152.04 823.088,150.768 823.088,149.136L823.088,117.888C823.088,112.704 824.24,108.864 826.544,106.368C828.848,103.872 831.824,102.624 835.472,102.624C839.408,102.624 842.432,104.088 844.544,107.016C846.656,109.944 847.712,114.288 847.712,120.048L847.712,149.136C847.712,150.864 847.616,152.184 847.424,153.096C847.232,154.008 846.56,154.752 845.408,155.328C844.832,155.616 844.28,155.784 843.752,155.832C843.224,155.88 842.744,155.952 842.312,156.048C841.88,156.144 841.544,156.336 841.304,156.624C841.064,156.912 840.944,157.392 840.944,158.064C840.944,159.696 841.712,160.512 843.248,160.512C844.208,160.512 845.576,160.344 847.352,160.008C849.128,159.672 851.264,159.504 853.76,159.504C856.256,159.504 858.464,159.672 860.384,160.008C862.304,160.344 863.936,160.512 865.28,160.512C867.008,160.512 867.872,159.744 867.872,158.208C867.872,157.44 867.704,156.912 867.368,156.624C867.032,156.336 866.576,156.144 866,156.048C865.424,155.952 864.776,155.856 864.056,155.76C863.336,155.664 862.64,155.424 861.968,155.04C860.528,154.08 859.808,152.112 859.808,149.136L859.808,118.176C859.808,110.208 858.152,104.184 854.84,100.104C851.528,96.024 846.896,93.984 840.944,93.984C838.064,93.984 835.304,94.656 832.664,96C830.024,97.344 827.696,99.264 825.68,101.76L824.096,103.632C823.616,104.208 823.232,104.496 822.944,104.496C822.656,104.496 822.512,103.872 822.512,102.624L822.512,96.72Z" style="fill-rule:nonzero;"/>
	</g>
    <g>
        <path d="M230,50C230,38.962 221.038,30 210,30L50,30C38.962,30 30,38.962 30,50L30,170C30,181.038 38.962,190 50,190L210,190C221.038,190 230,181.038 230,170L230,50Z" style="fill:#4c6e00;"/>
        <path d="M130.316,87.226L58.929,158.613L130.316,230L201.703,158.613L130.316,87.226Z" style="fill:#4c6e00;"/>
        <circle cx="130" cy="159.957" r="13.043" style="fill:#fff;"/>
        <path d="M143.043,63.043C143.043,70.261 137.217,128.261 130,128.261C122.783,128.261 116.957,70.261 116.957,63.043C116.957,55.888 122.845,50 130,50C137.155,50 143.043,55.888 143.043,63.043Z" style="fill:#fff;fill-rule:nonzero;"/>
    </g>
</svg>
